<?xml version="1.0" encoding="utf-8"?>
<!-- Generator: Adobe Illustrator 16.0.0, SVG Export Plug-In . SVG Version: 6.00 Build 0)  -->
<!DOCTYPE svg PUBLIC "-//W3C//DTD SVG 1.1//EN" "http://www.w3.org/Graphics/SVG/1.1/DTD/svg11.dtd">
<svg version="1.1" id="Capa_1" xmlns="http://www.w3.org/2000/svg" xmlns:xlink="http://www.w3.org/1999/xlink" x="0px" y="0px"
	 width="1398.553px" height="338.094px" viewBox="0 0 1398.553 338.094" enable-background="new 0 0 1398.553 338.094"
	 xml:space="preserve">
<g>
	<path d="M146.038,99.263l-56.284,1.408l-2.468,28.906l59.693,11.286l0.233,142.998l-115.974,1.765l4.7-30.434l89.303,5.171
		l-5.641-90.948l-64.04-6.819l-0.587-77.9l92.829-13.397L146.038,99.263z M44.045,278.809h-3.523v0.117h3.523V278.809z
		 M50.63,273.168c4.774,0.547,15.546,0.667,32.312,0.353c-7.133-0.547-19.432-0.903-36.898-1.057
		C48.388,272.775,49.923,273.011,50.63,273.168 M96.453,280.45c12.136-0.311,18.761-0.661,19.858-1.054
		c-30.474-0.547-49.588-0.627-57.341-0.237C74.635,279.944,87.128,280.377,96.453,280.45 M90.578,276.811
		c15.509,0.707,27.065,0.824,34.664,0.353C107.454,276.611,95.905,276.497,90.578,276.811"/>
	<path d="M166.25,238.575l-4.7-170.153l37.836-0.233l-0.587,169.208L166.25,238.575z M174.943,121.417
		c-0.076-2.899-0.117-5.13-0.117-6.702c-0.234-10.572-0.861-21.537-1.878-32.899h-0.587l0.587,27.611
		c0.077,17.234,0.35,38.78,0.82,64.627c0.631,0,1.018-6.772,1.174-20.326C175.1,140.175,175.1,129.406,174.943,121.417
		 M188.694,206.37c-0.941,4.623-1.024,13.396-0.237,26.32C189.479,224.624,189.555,215.85,188.694,206.37 M193.861,205.432v-15.275
		c-0.073-17.627-0.661-30.08-1.762-37.366c-0.393,13.861-0.193,34.74,0.587,62.628l0.587,2.232L193.861,205.432z"/>
	<path d="M303.407,99.263l-56.284,1.408l-2.468,28.906l59.693,11.286l0.233,142.998l-137.196,1.765l-0.764-30.434l115.983,5.171
		l-5.638-90.948l-64.036-6.819l-0.59-77.9l92.829-13.397L303.407,99.263z M174.356,278.809h-3.525v0.117h3.525V278.809z
		 M180.938,273.168c4.777,0.547,42.6,0.667,59.373,0.353c-7.133-0.547-46.49-0.903-63.957-1.057
		C178.703,272.775,180.231,273.011,180.938,273.168 M253.821,280.45c12.137-0.311,18.759-0.661,19.855-1.054
		c-30.474-0.547-49.585-0.627-57.341-0.237C232.001,279.944,244.497,280.377,253.821,280.45 M247.943,276.811
		c15.512,0.707,27.065,0.824,34.661,0.353C264.824,276.611,253.274,276.497,247.943,276.811"/>
	<path d="M345.546,66.247l-1.294,162.153l61.107,8.109l0.587-178.332l41.599-5.508l-2.703,210.277l-99.885,2.818l-26.553-22.207
		l-3.29-173.318L345.546,66.247z M322.402,141.212c0.704-5.014,0.587-17.394-0.354-37.129c-0.547,7.599-0.667,21.62-0.353,42.063
		C322.087,143.641,322.321,141.996,322.402,141.212 M327.218,111.369c0.471-16.53,0.314-28.79-0.474-36.779
		C326.438,93.469,326.592,105.725,327.218,111.369 M413.349,128.992c-0.705-23.734-1.294-36.662-1.765-38.78
		c-0.076,59.62,0.274,98.864,1.061,117.741C413.193,173.568,413.426,147.247,413.349,128.992"/>
	<path d="M898.536,99.263l-56.283,1.408l-2.469,28.906l59.692,11.286l0.234,142.998l-115.974,1.765l4.696-30.434l89.303,5.171
		l-5.637-90.948l-64.04-6.819l-0.587-77.9l92.825-13.397L898.536,99.263z M796.544,278.809h-3.526v0.117h3.526V278.809z
		 M803.123,273.168c4.776,0.547,15.548,0.667,32.313,0.353c-7.128-0.547-19.428-0.903-36.895-1.057
		C800.891,272.775,802.422,273.011,803.123,273.168 M848.951,280.45c12.14-0.311,18.758-0.661,19.855-1.054
		c-30.474-0.547-49.582-0.627-57.341-0.237C827.134,279.944,839.628,280.377,848.951,280.45 M843.073,276.811
		c15.513,0.707,27.064,0.824,34.663,0.353C859.957,276.611,848.404,276.497,843.073,276.811"/>
	<path d="M916.043,261.066l-1.998-191.983l38.424-5.834l-2.115,100.408l55.579-0.233l-1.381-108.098l30.02-4.59l-0.789,213.269
		l-28.906,1.524l5.758-75.552l-52.408,2.936l-0.232,67.566L916.043,261.066z M1002.645,169.768l-1.765-0.354
		c-22.719-0.394-39.675-0.47-50.877-0.233c5.874,0.544,15.979,0.817,30.314,0.817h12.456L1002.645,169.768z M1024.618,166.592
		c-0.471,12.927-0.434,21.7,0.116,26.32C1025.205,183.439,1025.165,174.661,1024.618,166.592 M1025.679,69.066l-0.357,2.232
		c-0.471,27.888-0.587,48.761-0.35,62.629c0.707-7.283,1.054-19.739,1.054-37.37V81.285L1025.679,69.066z M1027.319,132.635v6.699
		c0,10.575,0.234,21.543,0.705,32.899h0.356v-27.612c0.153-17.16,0.23-38.697,0.23-64.627c-0.395,0-0.704,6.775-0.938,20.329
		C1027.437,113.874,1027.319,124.646,1027.319,132.635"/>
	<path d="M1179.015,69.066l-3.526,195.996l-119.5,0.117l-10.457-197.053L1179.015,69.066z M1054.814,107.606l-0.587,1.881
		c0.157,22.247,0.664,38.894,1.528,49.938c0.863-5.875,1.057-15.822,0.587-29.85l-0.587-12.216L1054.814,107.606z M1059.632,158.252
		c0.076,2.345,0.156,4.153,0.233,5.404c0.316,8.46,1.058,17.197,2.235,26.204h0.587l-0.938-21.974
		c-0.236-13.787-0.787-31.021-1.647-51.7c-0.627,0.077-0.94,5.521-0.94,16.333C1059.162,143.327,1059.321,151.907,1059.632,158.252
		 M1063.392,101.615c-0.394,10.342-0.041,17.354,1.061,21.033C1064.996,115.052,1064.646,108.04,1063.392,101.615 M1142.236,103.026
		l-58.517-3.996l-2.468,143.825l62.512,2.232L1142.236,103.026z"/>
	<path d="M1278.778,74.59l1.058,19.035l-47.12,4.113l1.646,49.702l26.32-0.821l1.765,30.901h-31.729l5.875,46.063l78.141-2.232
		l-0.587,21.503l-121.027,0.234l2.349-168.498H1278.778z M1207.924,220.644c0.86-8.77,0.036-28.592-2.469-59.459
		c-0.471,13.164,0.04,35.884,1.527,68.156C1207.453,224.877,1207.764,221.978,1207.924,220.644 M1212.624,147.207
		c-0.159-28.596-1.137-49.898-2.938-63.923C1210.313,116.109,1211.29,137.413,1212.624,147.207 M1220.38,136.275
		c-2.038-22.324-3.525-34.467-4.466-36.422c1.721,56.011,3.485,91.261,5.287,105.752
		C1221.357,176.623,1221.084,153.511,1220.38,136.275 M1222.729,232.397h-0.354l0.354,5.637h0.354L1222.729,232.397z
		 M1244.232,78.114c4.463,0.707,14.335,0.707,29.609,0c-4.464-0.548-15.862-0.785-34.193-0.704
		C1242.001,77.803,1243.528,78.036,1244.232,78.114"/>
	<path d="M1365.553,119.712l-56.284,1.408l-2.468,28.906l59.692,11.278l0.234,122.555l-115.974,1.765l4.697-30.434l89.302,5.171
		l-5.637-70.502l-64.04-6.815l-0.587-77.904l92.825-13.397L1365.553,119.712z M1263.561,278.809h-3.526v0.117h3.526V278.809z
		 M1270.139,273.168c4.777,0.547,15.549,0.667,32.314,0.353c-7.128-0.547-19.428-0.903-36.894-1.057
		C1267.907,272.775,1269.435,273.011,1270.139,273.168 M1315.968,280.45c12.14-0.311,18.758-0.661,19.855-1.054
		c-30.474-0.547-49.585-0.627-57.341-0.237C1294.15,279.944,1306.644,280.377,1315.968,280.45 M1310.09,276.811
		c15.512,0.707,27.064,0.824,34.663,0.353C1326.974,276.611,1315.421,276.497,1310.09,276.811"/>
	<path fill="#9ED3CE" d="M773.52,90.273c0,0,23.134,16.686,15.539,37.339c-7.597,20.653-2.159,39.337-2.159,39.337
		s1.512,41.456-22.965,46.617c-24.479,5.161-29.656,40.138-49.258,49.305c-19.599,9.174-47.978,20.806-78.21,1.818
		c-30.23-18.992-12.583-47.557-8.914-70.896c3.663-23.338,51.624-75.759,61.357-136.887
		C694.678,20.678,751.959,70.337,773.52,90.273"/>
	<path fill="#D16D7D" d="M689.037,34.232c0,0-15.072-1.167-18.751,16.506c-3.677,17.673,0.104,57.095-7.08,84.939
		c-7.176,27.845-11.071,37.625-18.991,46.566c-7.916,8.943-13.4,13.194-13.4,13.194s26.854-6.015,46.549,9.253
		c19.698,15.275,24.662,14.051,19.889,5.825c-4.771-8.22-12.365-21.754-1.208-62.699c11.155-40.942,29.944-74.815,38.677-78.892
		c8.737-4.076,26.444-15.462,8.458-24.896C725.188,34.593,689.037,34.232,689.037,34.232"/>
	<path fill="#D16D7D" d="M479.204,130.934c0,0-4.083,19.495,12.15,48.334c16.232,28.849,16.105,29.035,20.943,43.517
		c4.836,14.481,44.924,43.196,74.181,35.38c29.259-7.819,49.355-15.832,52.898-6.012c3.543,9.815,9.514,53.779-27.548,58.416
		c-37.056,4.633-87.072-2.044-95.659-29.393c-8.583-27.341-13.567-55.673-21.226-68.283
		C487.283,200.285,455.846,145.662,479.204,130.934"/>
	<path fill="#F2F0C1" d="M501.967,52.67c0,0-26.674,10.101-24.699,32.018c1.968,21.917-8.133,38.546-8.133,38.546
		s-12.223,39.645,10.068,50.987c22.297,11.338,18.213,46.459,34.761,60.406c16.545,13.948,40.931,32.553,75.058,22.064
		c34.126-10.488,24.503-42.66,27.021-66.152c2.522-23.488,12.87-145.199-23.701-148.118C555.77,39.5,527.972,39.019,501.967,52.67"
		/>
	<path d="M657.103,277.572c-0.234,3.722-0.141,7.285-0.715,10.742c-1.708,10.285-7.686,17.617-16.563,22.734
		c-7.482,4.319-15.675,6.418-24.186,7.313c-20.089,2.107-39.374-1.415-58.071-8.654c-11.232-4.353-21.611-10.218-30.898-17.954
		c-12.81-10.678-21.193-24.236-25.556-40.204c-1.912-6.976-3.256-14.148-4.257-21.317c-1.841-13.197-6.361-25.28-13.344-36.602
		c-3.509-5.705-6.578-11.716-9.394-17.804c-4.884-10.578-5.821-21.82-4.35-33.259c0.9-6.992,2.061-13.961,3.412-20.879
		c0.567-2.896,1.688-5.765,3.006-8.42c4.323-8.687,7.375-17.827,10.288-27.041c1.001-3.165,2.282-6.265,3.689-9.277
		c4.351-9.323,11.843-14.384,21.957-15.605c10.329-1.248,20.68-0.971,30.985,0.19c5.244,0.593,10.414,1.821,15.625,2.729
		c1.448,0.247,2.908,0.42,4.37,0.561c6.465,0.617,12.056,2.936,16.193,8.16c0.21,0.26,0.47,0.514,0.761,0.67
		c5.897,3.14,9.047,8.347,10.925,14.508c0.056,0.187,0.146,0.371,0.183,0.557c0.368,1.985,1.008,3.376,3.27,4.333
		c3.119,1.318,4.117,4.541,4.356,7.83c0.708,9.634,1.381,19.268,2.108,28.899c0.046,0.64,0.287,1.331,0.624,1.885
		c2.179,3.556,2.832,7.258,1.265,11.228c-0.417,1.051,0.63,4.494,1.661,5.375c3.503,2.982,5.238,6.762,5.251,11.358
		c0.007,0.424,0.121,0.881,0.307,1.258c3.422,7.046,5.677,14.498,7.713,22.03c0.784,2.876,1.645,5.738,2.555,8.894
		c2.002-2.341,4.144-4.379,5.721-6.788c2.192-3.346,3.966-6.969,5.915-10.482c0.426-0.767,0.697-1.658,1.247-2.321
		c3.043-3.667,4.057-8.083,4.878-12.6c2.281-12.626,5.798-24.902,10.535-36.825c0.874-2.212,1.881-4.276,2.014-6.802
		c0.19-3.59,2.032-6.595,4.812-8.96c1.543-1.318,2.251-4.31,1.628-6.252c-1.081-3.352-0.755-6.635,1.054-9.637
		c0.797-1.317,1.128-2.619,1.247-4.11c0.551-6.745,1.215-13.48,1.756-20.232c0.192-2.389,0.104-4.804,0.206-7.202
		c0.134-2.962,1.107-5.571,3.463-7.509c0.45-0.367,0.968-0.834,1.494-0.894c1.726-0.19,2.035-1.348,2.392-2.762
		c1.491-5.935,4.026-11.292,9.271-14.878c1.624-1.111,3.075-2.326,4.433-3.763c3.363-3.553,7.707-5.304,12.439-6.155
		c4.718-0.851,9.441-1.668,14.171-2.452c12.694-2.105,25.454-2.643,38.268-1.375c11.476,1.134,19.361,7.183,23.695,17.813
		c1.421,3.493,2.668,7.066,3.796,10.658c2.512,8.066,5.49,15.929,9.187,23.536c2.679,5.511,4.081,11.405,4.701,17.523
		c0.494,4.824,1.431,9.601,1.955,14.421c1.437,13.24-1.348,25.65-7.7,37.292c-2.936,5.377-5.857,10.772-9.034,16.013
		c-5.743,9.487-8.729,19.859-10.381,30.714c-1.454,9.551-2.959,19.082-6.271,28.235c-6.316,17.47-17.415,31.078-32.967,41.129
		c-15.952,10.311-33.429,16.506-52.184,19.142c-4.65,0.65-9.371,0.824-14.059,1.217
		C657.619,277.528,657.289,277.555,657.103,277.572 M486.68,106.955c-0.083,0.087-0.21,0.167-0.26,0.28
		c-1.591,3.954-3.275,7.876-4.737,11.879c-3.076,8.423-3.26,16.98-0.71,25.567c1.968,6.642,5.491,12.553,9.066,18.414
		c4.397,7.199,8.987,14.314,11.462,22.468c1.908,6.274,3.673,12.603,5.184,18.991c3.506,14.865,9.801,28.292,19.916,39.831
		c3.756,4.286,7.833,8.239,12.383,11.799c0.14-0.287,0.274-0.491,0.34-0.718c0.733-2.395,1.401-4.81,3.553-6.445
		c0.193-0.15,0.181-0.794,0.05-1.124c-3.293-8.233-6.619-16.453-9.922-24.683c-0.764-1.888-1.49-3.79-2.234-5.691
		c0.132-0.063,0.273-0.127,0.406-0.193c1.311,2.468,2.623,4.94,4.09,7.706c-0.477-1.628-0.854-2.929-1.241-4.226
		c0.133-0.057,0.26-0.11,0.387-0.171c0.334,0.224,0.67,0.437,1.244,0.811c-0.317-0.821-0.537-1.395-0.764-1.972
		c-1.148,0.591-1.421-0.23-1.741-0.998c-0.861-2.015-1.721-4.026-2.605-6.031c-0.07-0.154-0.287-0.237-0.591-0.478
		c0.227,1.397,0.42,2.622,0.621,3.84c-0.127,0.033-0.254,0.063-0.38,0.093c-0.708-2.345-1.421-4.693-2.125-7.039
		c0.13-0.043,0.264-0.083,0.39-0.127c0.154,0.374,0.3,0.757,0.448,1.134c0.046-0.013,0.093-0.034,0.14-0.047
		c-0.097-0.94-0.193-1.888-0.287-2.835l0.448-0.077c1.154,1.614,2.681,3.069,2.122,5.124c0.781,0.958,1.414,1.741,2.178,2.682
		c-0.343-1.698-0.65-3.189-0.96-4.674c0.146-0.05,0.297-0.104,0.451-0.153c0.537,1.224,1.16,2.425,1.601,3.687
		c1,2.862,1.715,5.844,2.93,8.61c1.301,2.962,2.908,5.774,3.429,9.027c0.076,0.47,0.3,0.941,0.54,1.361
		c3.122,5.417,5.248,11.251,7.199,17.133c1.809-0.28,3.613-0.747,5.671,0.48c-2.021,1.177-3.752,0.697-5.584,0.524
		c0.983,1.335,1.908,2.585,2.888,3.92c5.155-4.53,6.412-10.899,8.443-17.297c-0.604,0.577-0.947,0.904-1.291,1.23
		c-3.422,3.283-10.588,1.985-11.729-3.009c-1.194-5.217,2.835-10.061,8.093-9.397c0.25,0.03,0.573-0.023,0.78-0.163
		c1.935-1.305,3.847-2.643,5.898-4.063c-0.114-0.487-0.333-1.187-0.454-1.905c-0.174-1.027-0.681-1.311-1.728-1.177
		c-1.501,0.19-3.036,0.106-4.547,0.26c-0.477,0.05-1.031,0.374-1.351,0.741c-1.862,2.115-4.11,3.186-6.922,2.595
		c-6.212-1.314-8.723-8.66-4.661-13.523c2.088-2.505,5.297-3.326,8.166-2.102c0.21,0.09,0.467,0.183,0.678,0.146
		c2.298-0.414,4.593-0.847,7.088-1.311c-0.647-2.855-1.328-5.837-2.034-8.964c-1.743,0.254-3.323,0.518-4.915,0.711
		c-2.105,0.257-4.393,0.02-5.627,2.372c-0.113,0.223-0.46,0.344-0.721,0.484c-2.769,1.504-5.438,1.124-7.879-0.65
		c-2.396-1.745-3.907-4.097-3.349-7.196c0.583-3.212,2.154-5.794,5.491-6.842c0.683-0.217,1.635-0.497,2.142-0.196
		c2.041,1.204,3.903,0.103,5.851-0.13c1.645-0.204,3.319-0.188,4.984-0.254c0.454-0.02,0.917-0.003,1.581-0.003
		c-0.527-3.049-1.044-5.838-1.471-8.64c-0.177-1.137-0.657-1.391-1.785-1.238c-2.708,0.374-5.438,0.641-8.173,0.817
		c-0.777,0.05-1.267,0.083-1.788,0.814c-1.582,2.249-4.997,3.31-7.493,2.499c-2.732-0.88-5.063-3.739-4.904-6.515
		c0.23-3.962,2.079-7.132,5.588-9.12c1.558-0.884,3.206-0.761,4.697,0.387c0.32,0.247,0.771,0.543,1.117,0.494
		c2.355-0.33,4.697-0.741,7.052-1.127c-1.438-3.009-2.929-6.132-4.42-9.257c-0.083-0.177-0.11-0.434-0.25-0.521
		c-0.324-0.207-0.708-0.494-1.048-0.47c-2.475,0.173-4.951,0.417-7.425,0.633c-0.247,0.431-0.461,1.064-0.881,1.488
		c-2.392,2.415-6.208,2.138-8.28-0.557c-2.369-3.08-2.135-7.887,0.524-10.732c2.058-2.205,5.328-2.372,7.295-0.561
		c2.032-0.106,3.88-0.203,5.724-0.303c-0.727-3.076-1.441-6.165-2.208-9.25c-0.061-0.247-0.414-0.55-0.681-0.601
		c-2.349-0.46-4.704-0.871-6.972-1.277c-0.841,1.204-1.542,2.452-2.476,3.5c-1.407,1.574-3.202,2.191-5.323,1.514
		c-2.136-0.68-3.533-2.151-3.597-4.344c-0.066-2.068,0.201-4.196,0.688-6.211c0.581-2.419,2.476-3.663,4.845-4.187
		c1.634-0.367,2.992-0.036,3.922,1.521c0.197,0.33,0.758,0.717,1.075,0.66c1.187-0.22,2.345-0.61,3.696-0.984
		c-1.528-1.531-3.229-2.292-5.15-2.615c-5.512-0.931-10.448,1.568-15.767,2.572c0.181,1.09,0.327,2.038,0.551,3.399
		c0.123-1.091,0.196-1.751,0.274-2.412c0.129,0.01,0.263,0.023,0.393,0.037c0.117,1.504,0.237,3.006,0.371,4.767
		c-0.357-0.42-0.547-0.647-0.721-0.857c-0.184,0.86-0.357,1.674-0.534,2.498c-0.2,0.004-0.4,0.007-0.602,0.01
		c-0.426-2.355-0.853-4.71-1.293-7.135c-0.927,0.057-1.849,0.11-2.776,0.167c-8.494,0.553-13.564-2.596-16.719-10.519
		C487.917,111.279,487.363,109.111,486.68,106.955 M713.582,121.931c2.362,0.39,4.664,0.784,6.977,1.12
		c0.316,0.047,0.721-0.177,1.011-0.376c1.978-1.392,3.836-1.418,5.83,0.04c2.223,1.627,3.606,3.856,4.341,6.479
		c0.837,2.958-0.301,5.961-2.856,7.752c-2.277,1.595-5.373,1.501-7.869-0.243c-1.58-1.107-3.949-2.008-5.904-2.235
		c-0.047-0.007-0.097-0.017-0.146-0.02c-2.219-0.29-4.438-0.581-6.868-0.904c-0.562,3.399-1.092,6.642-1.589,9.688
		c3.013,0.343,5.741,0.54,8.428,1.014c1.043,0.183,1.891,0.624,2.968-0.07c0.577-0.371,1.532-0.324,2.282-0.207
		c3.572,0.557,6.505,4.336,6.361,8.253c-0.116,3.162-1.941,5.314-4.621,6.679c-2.48,1.261-5.333,1.474-7.277-0.584
		c-1.705-1.792-3.46-2.269-5.675-2.332c-1.312-0.04-2.615-0.39-3.927-0.574c-0.32-0.047-0.65-0.006-1.041-0.006
		c-0.391,1.514-0.801,2.976-1.134,4.453c-0.341,1.508-0.604,3.032-0.907,4.55c1.918,0.224,3.676,0.347,5.401,0.654
		c1.134,0.203,2.127,0.547,3.321-0.087c0.725-0.387,1.839-0.277,2.712-0.09c3.593,0.771,6.162,3.753,6.449,7.313
		c0.283,3.519-1.872,6.965-5.258,8.406c-3.021,1.285-6.432,0.324-8.383-2.332c-0.201-0.273-0.547-0.613-0.831-0.617
		c-2.092-0.054-4.187-0.027-6.415-0.027c-0.25,0.944-0.54,2.059-0.754,2.855c2.089,1.451,3.96,2.772,5.848,4.063
		c0.207,0.14,0.534,0.233,0.771,0.187c3.422-0.721,5.704,1.018,7.348,3.66c2.829,4.547,0.011,10.021-5.286,10.525
		c-2.682,0.253-4.841-0.764-6.695-2.675c1.771,6.145,3.122,12.426,8.202,16.977c0.987-1.352,1.922-2.625,2.939-4.014
		c-2.792,0.604-4.396,0.417-5.317-0.68c1.762-1.047,3.576-0.494,5.36-0.294c1.999-6.018,4.19-11.885,7.319-17.36
		c0.308-0.543,0.381-1.21,0.601-1.811c0.844-2.285,1.701-4.567,2.563-6.849c0.677-1.778,1.4-3.543,2.041-5.331
		c0.777-2.165,1.461-4.367,2.255-6.525c0.25-0.68,0.733-1.277,1.108-1.911c0.129,0.894-0.051,1.645-0.207,2.395
		c-0.157,0.761-0.29,1.521-0.464,2.462c0.82-1.028,1.478-1.841,2.198-2.739c-0.311-1.852,0.828-4.243,2.476-4.954
		c0.146,0.984,0.46,1.979,0.387,2.939c-0.073,0.997-0.494,1.984-0.817,2.959c-0.313,0.964-0.69,1.911-1.037,2.862
		c-0.101-0.033-0.2-0.063-0.301-0.097c0.204-1.197,0.403-2.395,0.645-3.816c-0.361,0.293-0.581,0.38-0.648,0.538
		c-0.867,2.015-1.661,4.06-2.598,6.038c-0.277,0.584-0.944,0.981-1.432,1.461c-0.119-0.104-0.24-0.2-0.356-0.304
		c-0.196,0.537-0.395,1.071-0.634,1.731c0.537-0.28,0.917-0.477,1.688-0.877c-0.496,1.671-0.877,2.942-1.367,4.597
		c1.504-2.853,2.818-5.341,4.134-7.833c0.116,0.057,0.239,0.111,0.355,0.161c-0.153,0.45-0.286,0.9-0.46,1.338
		c-3.846,9.59-7.686,19.185-11.568,28.762c-0.341,0.844-0.228,1.308,0.353,2.031c0.984,1.228,1.749,2.652,2.496,4.054
		c0.403,0.76,0.587,1.638,0.907,2.575c0.424-0.3,0.747-0.501,1.038-0.738c9.94-8.106,17.87-17.84,23.705-29.279
		c4.293-8.414,6.647-17.464,8.84-26.568c2.395-9.944,5.313-19.672,10.625-28.535c3.656-6.095,7.325-12.19,10.665-18.454
		c5.177-9.711,6.457-20.053,3.386-30.644c-1.478-5.101-3.816-9.955-5.774-14.918c-0.02-0.046-0.16-0.043,0.097,0.017
		c-1.191,3.046-2.208,6.115-3.566,9.021c-2.229,4.777-6.215,7.212-11.39,7.636c-2.271,0.184-4.566,0.03-6.791,0.03
		c-0.446,2.416-0.88,4.761-1.313,7.103c-0.204-0.014-0.412-0.027-0.618-0.04c-0.153-0.827-0.311-1.655-0.484-2.582
		c-0.189,0.263-0.383,0.526-0.764,1.054c0.158-1.872,0.287-3.393,0.415-4.907c0.126-0.01,0.26-0.02,0.389-0.027
		c0.081,0.641,0.161,1.284,0.241,1.925h0.14c0.127-0.948,0.254-1.889,0.38-2.813c-2.499-0.667-4.787-1.451-7.139-1.858
		c-2.683-0.46-5.42-0.767-8.14-0.791c-2.074-0.013-3.919,0.998-5.601,2.656c0.837,0.217,1.484,0.374,2.128,0.547
		c0.697,0.18,1.391,0.38,2.092,0.57c-0.063-0.144-0.123-0.29-0.183-0.434c1.06-0.667,2.051-1.681,3.201-1.911
		c2.329-0.474,4.994,1.194,6.006,3.356c1.021,2.195,1.374,4.507,1.081,6.892c-0.284,2.305-1.535,3.85-3.82,4.53
		c-2.148,0.64-3.896-0.054-5.281-1.638c-0.894-1.018-1.564-2.229-2.375-3.403c-2.266,0.4-4.627,0.797-6.972,1.264
		c-0.283,0.05-0.628,0.454-0.708,0.75c-0.76,3.022-1.475,6.059-2.188,9.061c1.904,0.13,3.792,0.26,5.811,0.4
		c0.7-1.308,2.016-1.501,3.532-1.264c2.98,0.467,4.701,2.312,5.476,5.077c0.903,3.232,0.276,6.105-2.275,8.45
		c-2.553,2.338-7.446,0.944-8.164-1.928c-2.404-0.217-4.729-0.467-7.061-0.614c-0.479-0.03-1.255,0.187-1.426,0.53
		C716.605,115.475,715.087,118.762,713.582,121.931 M513.217,111.836c1.208-0.804,2.295-1.565,3.415-2.262
		c3.93-2.456,7.967-2.833,11.83-0.021c1.875,1.361,3.69,2.982,5.067,4.831c1.745,2.339,3.053,5.014,4.467,7.583
		c0.414,0.748,0.814,1.171,1.729,1.278c3.019,0.35,6.024,0.804,9.027,1.274c5.567,0.867,11.148,1.688,16.686,2.699
		c2.938,0.537,5.374,0.437,6.501-2.882c0.03-0.09,0.104-0.164,0.171-0.24c4.404-5.384,8.783-10.785,13.227-16.136
		c1.217-1.469,2.836-2.396,4.727-2.556c-0.413-2.675-0.813-5.288-1.22-7.896c-0.674-4.367-1.385-8.727-3.443-12.714
		c-2.805-5.427-7.192-8.66-13.35-8.997c-2.762-0.154-5.681-0.183-8.32,0.514c-7.191,1.908-14.364,3.956-21.362,6.462
		c-6.022,2.154-12.007,4.62-17.607,7.679c-5.865,3.196-10.128,8.164-11.993,14.825C512.162,107.443,511.969,109.601,513.217,111.836
		 M746.882,70.394c0.134-0.257,0.264-0.463,0.351-0.681c1.027-2.709,0.463-5.344-0.57-7.866
		c-2.786-6.772-7.851-11.382-14.291-14.568c-8.9-4.397-18.338-7.399-27.77-10.391c-5.06-1.608-10.191-2.862-15.564-2.656
		c-6.235,0.234-11.071,2.939-13.954,8.5c-1.314,2.532-2.249,5.338-2.872,8.124c-0.962,4.286-1.506,8.663-2.242,13.106
		c2.722,0.247,4.497,2.042,6.095,4.086c0.451,0.577,0.847,1.205,1.311,1.775c2.223,2.732,4.478,5.444,6.689,8.187
		c1.748,2.168,3.589,4.28,5.116,6.605c0.805,1.224,1.535,1.598,2.927,1.381c8.666-1.332,17.323-2.723,26.02-3.81
		c2.615-0.33,3.979-1.361,5.027-3.712c1.771-3.963,4.246-7.49,7.893-10.062c3.9-2.758,7.876-2.956,11.966-0.513
		C744.31,68.672,745.554,69.533,746.882,70.394 M598.99,275.294c3.33-0.164,6.669-0.17,9.978-0.518
		c8.61-0.903,16.396-3.839,22.674-10.023c3.596-3.547,6.622-7.489,7.726-12.598c1.047-4.806-0.096-7.401-4.43-9.817
		c-0.553-0.307-1.134-0.577-1.721-0.824c-4.744-1.988-9.771-2.435-14.832-2.555c-13.268-0.314-25.894,2.409-37.866,8.149
		c-4.911,2.355-9.785,4.791-13.754,8.644c-3.505,3.402-5.057,7.469-4.164,12.396c0.224,1.263,0.761,1.871,2.015,2.281
		C575.789,274.113,587.318,275.103,598.99,275.294 M660.558,233.76c13.154,0,24.159-1.464,33.59-4.367
		c3.173-0.978,3.452-1.347,3.565-4.677v-0.146c0.181-4.891-2.171-8.537-5.773-11.502c-4.861-4-10.491-6.662-16.233-9.091
		c-13.58-5.755-27.691-7.68-42.306-5.701c-3.62,0.487-7.079,1.558-10.081,3.786c-0.718,0.527-0.944,1.064-0.721,1.985
		c0.817,3.306,1.812,6.501,4.04,9.19c0.554,0.674,0.907,1.508,1.328,2.285c1.575,2.983,3.149,5.971,4.704,8.96
		c1.721,3.313,4.423,5.288,7.939,6.515C647.352,233.341,654.286,233.901,660.558,233.76 M562.285,73.773
		c-0.611-0.17-0.838-0.254-1.071-0.3c-6.606-1.188-13.218-2.362-19.815-3.573c-5.098-0.931-10.202-1.604-15.293-0.034
		c-5.12,1.578-10.334,2.572-15.638,3.36c-4.978,0.737-9.254,3.439-11.225,8.106c-1.745,4.137-2.619,8.717-3.359,13.184
		c-0.67,4.09-0.65,8.29-0.924,12.449c-0.023,0.334-0.041,0.721,0.096,1.008c0.955,2.032,1.815,4.117,2.962,6.035
		c0.968,1.615,2.636,2.272,4.55,2.195c3.032-0.123,5.631-1.454,8.303-2.882c-2.298-5.274-1.051-10.087,1.678-14.655
		c2.215-3.7,5.077-6.842,8.593-9.367c4.358-3.132,9.322-5,14.298-6.795C544.184,79.344,552.774,75.685,562.285,73.773
		 M749.177,71.958c1.422,0.651,2.682,1.301,3.997,1.818c5.554,2.195,8.566,0.958,10.864-4.55c0.524-1.274,0.925-2.696,0.955-4.06
		c0.043-1.995-0.458-3.999-0.444-5.998c0.036-5.601-0.934-11.002-2.509-16.359c-1.955-6.628-6.662-10.044-13.087-11.129
		c-4.547-0.77-9.094-1.401-13.49-2.858c-4.62-1.535-9.334-1.698-14.094-0.798c-4.527,0.858-9.04,1.779-13.574,2.596
		c-3.226,0.574-6.472,1.021-9.707,1.531c0.859,0.434,1.718,0.587,2.551,0.817c11.323,3.092,22.314,7.125,33.053,11.836
		c5.428,2.378,9.751,6.208,13.021,11.142C749.934,60.8,751.775,65.937,749.177,71.958 M525.375,253.61
		c-0.152,0.023-0.309,0.046-0.463,0.063c-0.21,1.431-0.33,2.885-0.65,4.291c-0.37,1.644,0.267,2.715,1.421,3.843
		c4.974,4.871,10.625,8.817,16.477,12.54c7.308,4.646,14.875,8.703,23.284,11.068c15.386,4.34,30.975,5.314,46.754,2.866
		c8.79-1.365,17.189-3.977,24.789-8.748c3.89-2.445,7.506-5.217,10.014-9.157c1.933-3.036,3.023-6.365,1.889-9.901
		c-0.841-2.645-2.197-5.127-3.346-7.673c-0.12-0.266-0.351-0.474-0.638-0.847c-0.572,12.79-7.175,21.103-18.327,26.187
		c-5.537,2.532-11.395,3.89-17.407,4.611c-10.464,1.248-20.86,0.647-31.204-1.191c-12.897-2.285-25.007-6.551-35.805-14.151
		C536.222,263.231,530.387,258.927,525.375,253.61 M528.652,282.362c-0.083,0.101-0.164,0.194-0.244,0.297
		c0.388,0.423,0.761,0.864,1.161,1.273c5.645,5.799,12.243,10.282,19.475,13.794c20.983,10.195,43.121,14.405,66.385,12.329
		c6.819-0.61,13.454-2.125,19.738-4.926c6.855-3.056,12.613-7.355,15.869-14.385c1.599-3.433,2.269-7.056,2.256-10.832
		c-1.309,2.436-2.542,4.817-3.857,7.153c-1.201,2.122-2.854,3.792-4.956,5.103c-4.368,2.716-9.045,4.701-13.944,6.175
		c-12.25,3.687-24.813,4.704-37.533,4.137c-11.326-0.503-22.475-2.235-33.096-6.278c-7.179-2.736-14.122-6.092-21.153-9.204
		C535.363,285.498,532.018,283.909,528.652,282.362 M629.284,236.443c-2.926-1.998-5.874-4.177-8.98-6.098
		c-4.117-2.542-7.923-5.421-11.185-9.01c-0.354-0.391-1.094-0.694-1.604-0.624c-12.207,1.591-23.982,4.861-35.478,9.221
		c-0.36,0.136-0.794,0.61-0.848,0.97c-0.933,7.106-3.722,13.571-6.809,19.937c-1.078,2.228-2.158,4.453-3.235,6.675
		c2.312-3.143,5.06-5.778,8.297-7.846c12.883-8.244,27.08-12.49,42.272-13.337C617.514,236.006,623.355,236.386,629.284,236.443
		 M630.654,195.108c0.053,0.11,0.107,0.217,0.161,0.333c1.094-0.137,2.181-0.293,3.276-0.407c1.171-0.113,2.341-0.22,3.522-0.28
		c15.365-0.747,30.061,2.065,44.055,8.45c5.521,2.512,10.729,5.527,14.841,10.118c0.715,0.788,1.342,1.662,2.006,2.496
		c-0.734-2.115-1.686-4.086-2.646-6.055c-3.139-6.452-5.994-12.994-6.981-20.196c-0.063-0.457-0.693-1.021-1.185-1.205
		c-11.364-4.263-22.997-7.533-35.069-9.07c-0.524-0.07-1.292,0.17-1.629,0.547c-3.343,3.733-7.31,6.638-11.543,9.273
		C636.446,190.984,633.584,193.099,630.654,195.108 M735.219,212.177c-0.152-0.02-0.303-0.037-0.456-0.06
		c-25.263,25.463-56.005,33.263-90.751,28.353c0.261,1.023,0.38,2.228,0.881,3.242c0.58,1.19,0.693,2.815,2.52,3.103
		c11.774,1.841,23.53,1.714,35.293-0.134c12.95-2.035,24.786-6.788,35.685-14.044c5.888-3.919,11.729-7.869,16.66-12.997
		c0.33-0.344,0.856-0.781,0.829-1.144C735.737,216.381,735.456,214.282,735.219,212.177 M739.346,218.062
		c2.452-2.335,4.384-4.708,5.524-7.626c2.385-6.118,4.733-12.25,7.086-18.384c1.744-4.554,2.969-9.228,3.355-14.115
		c0.243-3.025,0.327-6.108,0.967-9.057c2.506-11.473,7.206-22.041,13.748-31.788c5.014-7.463,8.903-15.456,11.202-24.166
		c0.927-3.52,1.768-7.089,1.188-11.212c-0.24,0.624-0.334,0.874-0.431,1.124c-1.204,3.152-2.151,6.432-3.673,9.427
		c-2.631,5.198-5.547,10.258-8.459,15.309c-4.328,7.512-7.987,15.278-10.084,23.735c-1.353,5.421-2.84,10.809-4.271,16.206
		c-3.347,12.627-8.864,24.182-17.023,34.42c-1.729,2.171-3.593,4.236-5.418,6.381C737.581,208.581,739.293,211.174,739.346,218.062
		 M526.867,249.674c-2.175-2.633-4.433-5.201-6.511-7.911c-8.49-11.035-13.604-23.618-16.96-37.028
		c-1.641-6.555-3.383-13.1-5.455-19.532c-2.448-7.603-6.705-14.368-10.654-21.253c-3.706-6.465-7.503-12.89-9.371-20.203
		c-0.027-0.09-0.161-0.144-0.247-0.213c-0.134,0.029-0.267,0.06-0.405,0.093c0.257,2.409,0.352,4.85,0.811,7.225
		c1.922,9.808,6.032,18.725,11.549,26.995c3.576,5.358,6.658,10.968,9.164,16.9c3.243,7.676,5.694,15.522,5.954,23.968
		c0.086,2.813,0.481,5.738,1.396,8.384c3.001,8.646,6.257,17.213,9.533,25.763c0.987,2.572,2.895,4.561,4.984,6.542
		C520.856,252.018,523.051,249.826,526.867,249.674 M731.83,241.364c-0.104-0.154-0.214-0.311-0.323-0.468
		c-0.427,0.191-0.861,0.377-1.288,0.574c-8.203,3.739-16.35,7.612-24.622,11.192c-15.687,6.781-32.212,8.903-49.162,8.474
		c-1.193-0.03-2.391-0.113-3.68-0.181c0.777,2.369,1.578,4.523,2.172,6.742c0.301,1.127,0.678,1.555,1.941,1.53
		c13.334-0.272,26.334-2.478,38.993-6.665c10.349-3.425,20.127-8.003,28.739-14.801C727.12,245.77,729.425,243.506,731.83,241.364
		 M586.884,131.922c-0.37-0.061-0.944-0.171-1.519-0.24c-8.52-0.978-17.053-1.808-25.542-2.966
		c-6.549-0.891-13.021-2.339-19.565-3.249c-5.404-0.758-10.775-0.157-15.892,1.891c-0.594,0.24-1.021,0.897-1.531,1.361
		c0.577,0.367,1.15,0.737,1.731,1.094c0.073,0.05,0.187,0.063,0.28,0.073c4.624,0.517,9.234,1.214,13.871,1.511
		c6.575,0.423,13.077,1.127,19.399,3.102c6.348,1.981,12.88,2.989,19.502,3.376c0.663,0.04,1.464-0.18,2.001-0.564
		C582.077,135.571,584.466,133.733,586.884,131.922 M673.148,90.452c2.564,1.925,5.113,3.863,7.692,5.751
		c0.313,0.23,0.82,0.307,1.228,0.28c5.828-0.4,11.636-1.028,17.25-2.715c7.029-2.112,14.16-3.413,21.507-3.793
		c4.93-0.253,9.838-1.027,14.748-1.645c0.58-0.073,1.104-0.626,1.658-0.954c-0.477-0.484-0.868-1.174-1.448-1.418
		c-3.616-1.518-7.446-2.378-11.325-2.112c-5.118,0.347-10.269,0.854-15.296,1.841c-10.647,2.095-21.403,3.263-32.179,4.337
		C675.646,90.159,674.309,90.323,673.148,90.452 M526.974,252.025c2.129,1.958,4.03,3.727,5.952,5.468
		c7.345,6.655,15.165,12.656,24.413,16.426c16.132,6.576,32.952,8.53,50.215,6.645c8.209-0.895,16.109-2.986,23.184-7.456
		c8.15-5.147,12.707-12.473,13.167-22.184c0.033-0.761-0.338-1.542-0.517-2.312c-0.124,0.02-0.247,0.04-0.371,0.06
		c-0.967,7.012-4.09,12.934-8.967,17.991c-7.339,7.613-16.613,10.628-26.854,11.335c-8.787,0.611-17.554,0.204-26.28-0.897
		c-11.042-1.394-21.57-4.473-31.348-9.92c-6.855-3.827-12.994-8.597-18.748-13.898C529.799,252.338,528.683,251.808,526.974,252.025
		 M575.516,73.79c-2.416-2.312-5.328-3.663-8.637-4.203c-3.389-0.558-6.813-0.915-10.158-1.651
		c-13.524-2.962-27.174-3.65-40.941-2.476c-8.617,0.737-15.233,4.701-19.042,12.567c-1.908,3.95-3.155,8.216-4.793,12.3
		c-0.75,1.871-0.75,3.683-0.229,5.577c0.613,2.265,1.167,4.547,1.848,7.226c0.487-4.617,0.887-8.76,1.378-12.894
		c0.503-4.273,1.438-8.43,4.18-11.916c3.269-4.144,7.192-7.312,12.786-7.283c4.817,0.023,9.484-0.687,14.008-2.251
		c4.886-1.685,9.781-1.662,14.778-0.594c4.737,1.011,9.514,1.838,14.271,2.742c3.729,0.704,7.686,0.357,11.119,2.412
		c0.109,0.07,0.286,0.041,0.434,0.047C569.487,73.527,572.457,73.656,575.516,73.79 M684.517,32.394
		c2.855-0.147,5.824-0.297,8.794-0.467c0.384-0.02,0.764-0.11,1.134-0.217c1.725-0.504,3.416-1.174,5.174-1.498
		c6.165-1.121,12.373-2.021,18.527-3.203c4.857-0.937,9.651-1.688,14.513-0.073c5.236,1.745,10.577,2.799,16.155,2.699
		c1.688-0.027,3.506,0.56,5.054,1.308c4.106,1.968,7.089,5.147,9.077,9.273c1.698,3.52,2.021,7.346,2.52,11.125
		c0.43,3.283,0.636,6.592,0.943,9.888c1.011-3.036,1.721-6.125,2.392-9.214c0.08-0.36,0.026-0.793-0.1-1.144
		c-1.662-4.604-3.079-9.317-5.088-13.761c-3.236-7.139-8.927-11.512-16.706-12.713c-3.953-0.607-8.009-0.834-12.016-0.777
		c-6.56,0.091-13.147,0.21-19.652,0.944c-7.389,0.831-14.705,2.339-22.047,3.573C689.824,28.701,686.858,30.099,684.517,32.394
		 M594.152,132.929c-0.787,0.194-2.281,0.484-3.719,0.941c-4.053,1.278-7.295,3.933-10.705,6.329
		c-7.339,5.146-14.719,10.241-22.084,15.341c-1.261,0.871-3.276,1.445-3.646,2.583c-0.4,1.21,0.708,2.932,1.211,4.417
		c0.367,1.104,1.301,1.341,2.241,0.59c0.46-0.367,0.851-0.811,1.279-1.218c5.407-5.124,11.338-9.554,18.137-12.623
		c5.171-2.335,10.535-4.226,15.793-6.371c1.707-0.704,3.455-1.418,4.964-2.456c1.661-1.144,2.147-3.339,1.507-4.994
		C598.516,133.876,596.922,132.923,594.152,132.929 M706.327,116.567c-4.371-2.826-8.637-5.428-12.733-8.27
		c-5.711-3.967-11.296-8.126-16.95-12.179c-3.309-2.362-6.879-4.15-10.988-4.61c-1.995-0.227-3.855,0.7-4.594,2.238
		c-0.777,1.625-0.337,3.709,1.164,5.098c0.567,0.526,1.212,1.021,1.908,1.337c1.292,0.588,2.625,1.084,3.974,1.528
		c10.581,3.496,20.652,7.976,29.253,15.262c1.645,1.394,3.212,2.875,4.81,4.323c1.408,1.278,2.282,1.101,2.862-0.634
		C705.496,119.272,705.917,117.867,706.327,116.567 M604.188,160.297c0.167,0.017,0.343,0.037,0.514,0.054
		c1.461-1.221,1.842-2.81,1.401-4.607c-0.404-1.631-1.354-2.909-2.822-3.779c-1.242-0.741-2.409-0.69-3.502,0.29
		c-0.061,0.05-0.198,0.003-0.287,0.03c-1.325,0.391-2.786,0.551-3.95,1.221c-3.556,2.055-7.018,4.277-10.478,6.502
		c-1.562,1.004-3.149,2.038-4.493,3.299c-5.992,5.641-12.371,10.806-19.016,15.712c0.613,1.738,1.228,3.51,1.782,5.078
		c0.9-0.777,1.764-1.558,2.668-2.301c8.207-6.719,16.92-12.704,26.394-17.507c2.249-1.141,4.774-1.725,7.14-2.655
		c3.306-1.305,4.223-5.728,1.648-7.799c-0.341-0.273-0.548-0.711-0.901-1.191c2.762,0.017,4.376,2.278,3.923,5.01
		C604.061,158.512,604.188,159.417,604.188,160.297 M698.464,137.773c-4.729-3.846-9.29-7.542-13.841-11.252
		c-3.372-2.752-6.632-5.657-10.124-8.243c-2.792-2.062-5.777-3.896-8.837-5.538c-2.175-1.167-4.57-1.968-6.946-2.696
		c-1.44-0.437-3.603,1.405-4.482,3.467c-0.888,2.074-0.417,4.06,1.588,5.607c0-1.221,0.14-2.215-0.027-3.156
		c-0.427-2.505,1.495-4.964,3.947-4.657c-0.345,0.444-0.604,0.844-0.925,1.181c-2.168,2.305-1.764,5.645,0.961,7.286
		c0.787,0.47,1.718,0.684,2.572,1.051c3.053,1.311,6.271,2.332,9.113,4.006c8.897,5.228,17.631,10.719,25.21,17.971
		C697.297,141.059,697.917,139.314,698.464,137.773 M642.171,172.694c2.204,1.981,4.813,2.698,7.475,3.166
		c4.2,0.727,8.45,1.174,12.634,1.972c13.023,2.479,25.249,7.452,37.55,12.176c0.884,0.337,1.684,0.674,2.349-0.271
		c0.609-0.867,0.917-1.848-0.037-2.622c-1.545-1.254-3.05-2.682-4.82-3.502c-2.513-1.171-5.225-1.945-7.896-2.736
		c-6.756-2.011-13.564-3.849-20.299-5.928c-5.425-1.675-10.702-3.84-16.174-5.328C648.995,168.543,644.835,168.193,642.171,172.694
		 M617.832,214.202c-0.781-2.005-2.322-3.026-4.263-3.437c-0.994-0.213-2.102-0.43-3.056-0.209c-4.14,0.964-8.34,1.804-12.336,3.209
		c-7.212,2.536-14.33,5.284-21.79,7.095c-4.463,1.084-8.85,2.519-13.217,3.957c-2.216,0.727-4.083,2.111-5.491,4.04
		c-0.677,0.924-0.3,1.778,0.324,2.372c0.376,0.364,1.278,0.547,1.785,0.367c2.815-0.998,5.578-2.142,8.367-3.213
		c13.163-5.05,26.5-9.407,40.647-10.802C612.047,217.261,615.282,216.474,617.832,214.202 M640.986,234.779
		c0.616,1.758,1.932,2.889,4.065,3.132c5.008,0.571,9.991,1.472,15.013,1.786c8.007,0.494,15.969-0.274,23.855-1.725
		c10.251-1.888,20.002-5.084,28.865-10.769c7.31-4.684,13.688-10.472,20.009-16.349c0.03-0.034-0.033-0.167-0.06-0.28
		c-1.972-0.331-3.152,0.958-4.42,2.115c-9.104,8.337-19.192,15.132-31.048,18.855C678.788,237.341,660.004,238.411,640.986,234.779
		 M662.934,169.177c-0.021,0.13-0.037,0.261-0.058,0.387c3.013,1.161,6.015,2.335,9.038,3.463c0.383,0.144,0.854,0.124,1.274,0.087
		c2.044-0.164,4.105-0.644,6.121-0.491c5.414,0.41,10.812,1.094,16.216,1.651c3.46,0.354,6.905,0.781,10.371,0.961
		c2.172,0.11,3.83-1.241,4.35-3.049c0.411-1.421,0.08-2.358-1.317-2.799c-1.668-0.53-3.396-0.97-5.134-1.151
		c-11.155-1.174-22.313-0.677-33.473,0.1C667.854,168.51,665.398,168.891,662.934,169.177 M691.896,159.623
		c0.972-2.368,0.961-2.619-0.848-4.323c-1.881-1.778-3.726-3.633-5.784-5.208c-5.047-3.873-10.248-7.545-15.305-11.405
		c-3.003-2.295-6.342-3.896-9.848-5.15c-1.345-0.474-2.88-0.634-4.313-0.574c-0.904,0.043-2.169,0.543-2.556,1.234
		c-0.327,0.587,0.094,2.045,0.674,2.599c1.755,1.665,3.593,3.359,5.688,4.513c2.776,1.525,5.961,2.292,8.724,3.83
		C676.39,149.629,684.467,154.136,691.896,159.623 M568.083,200.982c2.918-1.901,5.781-3.919,8.783-5.707
		c7.272-4.32,14.271-9.171,22.4-11.886c0.827-0.277,1.682-0.657,2.346-1.208c1.708-1.428,3.52-2.815,4.907-4.527
		c1.285-1.584,0.451-3.116-1.618-3.199c-1.587-0.067-3.282-0.003-4.767,0.484c-3.492,1.144-6.818,2.715-9.757,4.997
		c-1.588,1.234-3.22,2.412-4.881,3.536c-5.814,3.939-11.272,8.303-16.399,13.11C567.542,198.04,567.299,199.378,568.083,200.982
		 M597.195,211.02c-0.007-0.11-0.013-0.22-0.02-0.337c-0.857-0.13-1.711-0.287-2.572-0.383c-10.885-1.268-21.813-1.555-32.749-1.078
		c-3.402,0.147-6.813,0.734-10.159,1.415c-2.15,0.434-2.725,2.289-1.357,4.02c0.677,0.851,1.792,1.555,2.842,1.855
		c1.188,0.344,2.538,0.317,3.786,0.17c5.648-0.644,11.283-1.405,16.924-2.092c4.383-0.53,8.767-1.134,13.15,0.004
		c0.267,0.066,0.6,0.066,0.851-0.027C590.997,213.395,594.093,212.207,597.195,211.02 M560.73,162.809l0.17,0.42
		c0.24,0,0.48-0.01,0.72,0c4.691,0.217,9.381,0.464,14.078,0.634c0.508,0.024,1.095-0.257,1.545-0.55
		c4.213-2.755,8.417-5.534,12.586-8.35c0.363-0.24,0.753-0.814,0.721-1.197c-0.221-2.479-0.554-4.947-0.881-7.652
		C578.994,150.139,568.93,154.866,560.73,162.809 M699.228,121.718c-3.021-4.868-21.986-15.886-28.865-16.771
		c-0.293,2.522-0.614,5.038-0.841,7.559c-0.033,0.311,0.331,0.774,0.638,0.978c4.264,2.862,8.54,5.702,12.833,8.51
		c0.411,0.267,0.967,0.457,1.447,0.437c4.544-0.184,9.084-0.427,13.628-0.654C698.434,121.757,698.801,121.737,699.228,121.718
		 M574.524,165.968c-0.06-0.113-0.106-0.217-0.163-0.327c-2.919,0-5.848-0.06-8.771,0.01c-7.49,0.17-14.979,0.384-22.465,0.617
		c-0.92,0.034-1.861,0.207-2.734,0.498c-1.338,0.447-2.749,1.16-2.522,2.809c0.293,2.168,0.754,3.586,2.976,4.016
		c0.987,0.194,2.041,0.161,3.052,0.057c1.798-0.187,3.583-0.713,5.375-0.727c4.991-0.033,9.98,0.137,14.972,0.19
		c0.56,0.006,1.254-0.01,1.661-0.317C568.81,170.562,571.656,168.253,574.524,165.968 M685.671,124.073
		c-0.057,0.11-0.12,0.213-0.181,0.327c1.719,1.415,3.57,2.696,5.125,4.273c2.588,2.629,5.54,3.253,9.153,2.909
		c5.311-0.503,10.672-0.591,15.966,0.567c0.987,0.213,2.055,0.207,3.068,0.11c1.979-0.18,3.243-1.711,3.443-3.973
		c0.12-1.298-0.761-2.395-2.562-2.966c-0.875-0.28-1.819-0.447-2.736-0.47C706.527,124.566,696.099,124.325,685.671,124.073
		 M691.683,104.744c2.762,1.558,5.511,3.136,8.303,4.644c0.356,0.193,0.938,0.104,1.381,0c4.79-1.147,9.607-1.061,14.458-0.48
		c3.536,0.426,7.083,0.811,10.639,1.071c1.378,0.1,2.432-0.187,2.655-2.182c0.354-3.166-0.867-4.82-4.01-4.25
		c-2.939,0.527-5.868,0.507-8.764-0.007C708.092,102.072,699.942,103.139,691.683,104.744 M568.396,146.173
		c-0.056-0.136-0.11-0.273-0.163-0.414c-1.789-0.22-3.59-0.41-5.375-0.674c-5.393-0.787-10.797-1.241-16.235-0.451
		c-4.13,0.607-8.257,1.075-12.417,0.284c-0.187-0.037-0.39-0.027-0.587-0.02c-1.698,0.07-2.819,1.228-2.842,2.929
		c-0.033,2.816,0.394,3.56,2.565,3.583c2.238,0.027,4.514-0.076,6.719-0.43c6.328-1.027,12.626-1.674,18.954-0.074
		c0.31,0.081,0.715,0.114,0.968-0.026C562.799,149.332,565.598,147.747,568.396,146.173 M688.173,86.256
		c-0.783-1.031-1.411-1.958-2.132-2.802c-3.967-4.627-8.557-8.723-11.628-14.114c-0.698-1.225-1.942-2.216-3.113-3.076
		c-2.082-1.527-4.438-0.427-4.693,2.148c-0.098,0.951-0.044,1.979,0.203,2.902c0.987,3.77,3.059,6.792,6.248,9.124
		c2.726,1.992,5.251,4.24,7.896,6.335c0.33,0.26,0.867,0.437,1.277,0.387C684.127,86.924,686.004,86.596,688.173,86.256
		 M571.875,127.355c0.093,0.141,0.187,0.277,0.28,0.417c1.104,0.146,2.27,0.123,3.303,0.466c2.275,0.757,3.802-0.003,5.484-1.621
		c2.321-2.225,5.114-3.946,7.585-6.028c2.97-2.498,4.63-5.774,4.998-9.644c0.139-1.475-0.204-2.882-1.672-3.633
		c-1.59-0.821-2.938-0.057-3.949,1.057c-1.569,1.735-2.946,3.64-4.414,5.464c-1.585,1.972-3.129,3.98-4.783,5.892
		C576.476,122.304,574.158,124.816,571.875,127.355 M685.181,146.47c1.778,1.441,3.423,2.665,4.928,4.036
		c0.924,0.834,1.88,1.244,3.125,1.308c5.211,0.247,10.494-0.13,15.535,1.711c0.451,0.167,0.951,0.217,1.435,0.277
		c4.29,0.5,5.278-0.243,5.905-4.42c0.326-2.185-0.101-3.142-2.229-3.482c-2.392-0.377-4.866-0.504-7.285-0.38
		C699.539,145.883,692.546,147.407,685.181,146.47 M574.831,187.912c-5.598,0.721-10.789-0.053-16.009-0.474
		c-3.843-0.31-7.716-0.491-11.559-0.333c-2.949,0.113-3.596,1.237-3.269,4.093c0.036,0.297,0.043,0.59,0.066,0.884
		c0.15,2.028,1.208,3.192,3.266,3.212c1.548,0.013,3.167-0.087,4.634-0.518c3.67-1.077,7.386-1.451,11.179-1.401
		c1.417,0.017,2.838-0.077,4.256-0.187c0.517-0.037,1.141-0.11,1.524-0.414C570.835,191.275,572.687,189.69,574.831,187.912
		 M663.734,155.306c3.8,2.265,7.172,5.127,9.604,8.971c0.493,0.784,1.027,0.994,1.895,0.977c4.848-0.11,9.698-0.144,14.545-0.26
		c0.478-0.007,1.215-0.261,1.364-0.604c0.33-0.745,0.367-1.512-0.587-2.125c-2.756-1.778-5.425-3.69-8.134-5.542
		c-1.184-0.81-2.248-1.558-3.929-1.487C673.571,155.436,668.638,155.306,663.734,155.306 M595.851,196.665
		c-4.273,0-8.95,0.16-13.607-0.07c-2.465-0.113-4.052,1.208-5.818,2.406c-2.148,1.455-4.223,3.029-6.432,4.377
		c-1.344,0.817-1.521,1.724-0.79,3.252c4.8,0,9.688-0.08,14.574,0.043c1.628,0.037,2.789-0.193,3.505-1.791
		c0.314-0.694,0.878-1.321,1.448-1.838C591.158,200.819,593.633,198.644,595.851,196.665 M597.966,208.601
		c1.718-1.054,3.492-2.068,5.187-3.195c2.358-1.562,4.872-2.983,6.943-4.871c2.778-2.542,1.981-4.333-1.695-5.798
		c-0.944-0.374-2.338-0.054-3.379,0.327c-1.922,0.707-3.77,1.634-5.591,2.579c-4.084,2.118-6.976,5.538-9.789,8.967
		C592.524,207.301,595.316,207.968,597.966,208.601 M670.286,165.131c-3.9-5.778-9.481-9.543-16.12-11.853
		c-0.66-0.233-1.461-0.207-2.175-0.113c-1.688,0.224-3.056,1.308-3.5,2.769c-0.25,0.807,0.578,2.269,1.338,3.006
		c1.425,1.374,3.116,2.495,4.765,3.626c2.335,1.584,4.727,3.092,7.111,4.604c0.2,0.127,0.554,0.117,0.798,0.057
		C665.085,166.545,667.663,165.841,670.286,165.131 M652.915,139.267c-0.863,0.864-2.031,1.028-3.099,0.317
		c-0.974-0.647-1.762-1.571-2.669-2.412c-1.055,4.04-2.121,8.14-3.236,12.434c5.151-3.5,7.609-3.066,8.113,1.204
		c1.521,0.373,3.025,0.751,4.696,1.164c0.738-2.909,1.466-5.774,2.149-8.466C656.771,142.013,654.866,140.656,652.915,139.267
		 M607.143,180.72c-2.045,1.455-3.95,2.805-5.958,4.236c0.714,2.775,1.44,5.601,2.168,8.463c1.718-0.43,3.263-0.821,4.817-1.208
		c-0.126-1.965,1.14-3.766,2.969-3.533c1.665,0.207,3.229,1.194,4.907,1.865c-1.031-3.91-2.088-7.939-3.193-12.159
		C610.585,181.573,609.145,182.084,607.143,180.72 M757.587,171.996l0.399,0.2c0.874-2.495,1.496-5.114,2.676-7.449
		c3.256-6.425,6.622-12.79,10.185-19.048c3.913-6.878,7.75-13.768,9.794-21.47c0.864-3.259,1.419-6.602,2.116-9.911
		c-0.138-0.026-0.271-0.056-0.407-0.083c-0.225,0.744-0.444,1.488-0.668,2.229c-2.218,7.353-4.894,14.518-9.243,20.899
		c-5.13,7.513-8.938,15.662-11.939,24.195C759.302,164.958,758.545,168.513,757.587,171.996 M477.729,155.9
		c-0.067,0.017-0.141,0.03-0.208,0.047c0.165,1.154,0.312,2.311,0.504,3.466c1.512,9.023,5.147,17.22,9.688,25.083
		c3.55,6.155,7.085,12.323,10.362,18.622c1.61,3.095,2.618,6.504,3.892,9.774c-0.079-1.188-0.18-2.398-0.494-3.553
		c-2.515-9.327-6.071-18.234-11.274-26.384c-4.043-6.348-7.803-12.8-10.185-19.976C479.23,160.627,478.489,158.262,477.729,155.9
		 M671.199,135.975c0.267,0.457,0.284,0.511,0.321,0.537c2.225,1.602,4.646,2.996,6.635,4.854c2.915,2.735,6.155,3.629,10.018,3.025
		c1.908-0.304,3.869-0.304,5.808-0.437c0.04-0.137,0.084-0.273,0.127-0.41c-3.843-2.762-7.673-5.542-11.543-8.263
		c-0.393-0.277-1.036-0.34-1.547-0.293C677.814,135.278,674.619,135.628,671.199,135.975 M566.024,184.963l0.134,0.42
		c2.035,0.153,4.097,0.213,6.125,0.487c3.462,0.467,6.552-0.087,9.1-2.705c0.74-0.761,1.728-1.275,2.602-1.905
		c1.569-1.138,3.142-2.275,4.717-3.413c-0.021-0.124-0.033-0.244-0.046-0.367c-2.796-0.357-5.585-0.777-8.387-1.038
		c-0.98-0.086-2.218-0.096-2.962,0.411C573.48,179.459,569.774,182.24,566.024,184.963 M771.541,60.613
		c-0.867,4.934-2.071,9.401-4.687,13.363c-3.174,4.797-7.883,6.822-13.461,5.421c-3.118-0.788-6.125-2.032-9.167-3.116
		c-2.792-0.994-5.624-1.737-8.623-1.395c-4.337,0.498-7.51,2.712-9.497,6.715c0.787-0.04,1.613-0.154,2.132-0.607
		c2.751-2.432,5.931-3.656,9.573-3.316c2.231,0.204,4.43,0.765,6.635,1.194c3.503,0.681,6.966,1.651,10.495,2.022
		c7.293,0.781,11.246-1.428,14.464-7.979c1.242-2.522,1.945-5.308,2.927-7.966C772.882,63.475,772.395,62.204,771.541,60.613
		 M488.05,102.215c-0.153,1.365-0.581,2.622-0.37,3.766c0.744,4.037,2.358,7.759,4.577,11.226c1.559,2.435,3.653,4.27,6.509,4.624
		c3.035,0.377,6.178,0.58,9.2,0.223c3.329-0.39,6.572-1.518,9.86-2.302c5.271-1.254,10.222-1.038,14.412,3.026
		c0.367,0.354,1.154,0.273,2.055,0.457c-0.331-0.647-0.44-0.911-0.588-1.15c-2.878-4.564-8.186-6.846-13.663-5.504
		c-3.27,0.797-6.372,2.251-9.618,3.152c-2.526,0.704-5.162,1.451-7.737,1.415c-5.03-0.066-8.406-3.156-10.431-7.466
		C490.593,110.128,489.519,106.295,488.05,102.215 M490.046,96.724c-0.368,1.338-1.035,2.473-0.889,3.486
		c0.748,5.171,1.962,10.228,5.201,14.512c2.02,2.668,4.558,4.847,7.981,4.994c2.425,0.104,4.957-0.434,7.322-1.118
		c2.949-0.857,5.748-2.225,8.666-3.239c3.417-1.188,6.899-1.23,10.142,0.504c1.895,1.018,3.556,2.472,5.217,3.653
		c-1.107-2.312-2.528-4.674-4.643-6.548c-2.342-2.071-5.124-2.899-8.06-1.845c-2.362,0.844-4.55,2.211-6.798,3.383
		c-2.209,1.147-4.301,2.605-6.619,3.452c-6.698,2.449-11.989-0.304-14.11-7.089c-0.121-0.377-0.221-0.75-0.307-1.134
		C492.134,105.498,491.126,101.264,490.046,96.724 M769.913,55.368c-0.14,0.591-0.224,0.948-0.307,1.301
		c-1.084,4.527-1.949,9.111-3.306,13.547c-1.752,5.688-6.489,8.316-12.207,6.702c-2.815-0.794-5.4-2.433-8.056-3.753
		c-2.182-1.088-4.24-2.462-6.481-3.379c-2.493-1.015-5.031-0.661-7.316,0.834c-2.842,1.858-4.447,4.683-6.131,7.969
		c1.341-1.185,2.275-2.182,3.369-2.959c4.046-2.869,8.44-3.173,13.014-1.491c2.802,1.031,5.557,2.192,8.363,3.213
		c2.411,0.877,4.896,1.451,7.492,0.891c4.4-0.951,7.299-3.863,9.05-7.733c1.438-3.179,2.225-6.655,3.29-10.004
		C771.237,58.771,770.73,57.18,769.913,55.368 M519.488,271.006c0.554-2.318,1.034-4.546,1.641-6.742
		c0.274-0.976-0.02-1.494-0.794-2.064c-0.98-0.72-1.878-1.574-2.716-2.461c-3.473-3.683-5.504-8.173-7.156-12.874
		c-1.217-3.456-2.505-6.886-3.766-10.325C508.125,249.08,512.496,260.505,519.488,271.006 M753.38,195.034
		c-1.364,3.776-2.722,7.549-4.093,11.322c-2.085,5.755-4.928,11.008-9.951,14.798c-0.26,0.196-0.567,0.647-0.51,0.907
		c0.529,2.459,1.137,4.897,1.754,7.489C747.636,219.006,751.916,207.557,753.38,195.034 M545.061,133.9
		c1.322,2.668,2.569,5.248,3.89,7.789c0.133,0.25,0.721,0.367,1.097,0.37c2.693,0.024,5.386-0.06,8.073,0.017
		c2.266,0.07,2.73-0.144,3.66-2.295c0.174-0.394,0.336-0.784,0.547-1.278C556.657,136.445,551.06,134.48,545.061,133.9
		 M697.624,97.108c0.61,1.057,1.063,2.044,1.714,2.875c0.32,0.404,1.004,0.734,1.527,0.741c3.087,0.04,6.169-0.01,9.255-0.077
		c0.354-0.006,0.887-0.207,1.027-0.48c1.308-2.505,2.548-5.047,3.876-7.703C708.996,93.045,703.4,95.013,697.624,97.108
		 M607.297,205.706c0.713,2.322,0.713,2.315,3.016,2.305c2.548-0.01,5.044,0.367,7.041,2.052c1.085,0.907,2.116,0.934,3.376,0.707
		c-0.54-1.698-1.107-3.31-1.561-4.95c-0.471-1.695-0.828-3.423-1.235-5.151c-2.051,1.999-3.192,2.146-5.584,0.805
		C610.676,202.877,609.031,204.255,607.297,205.706 M639.468,169.331c1.282,0.304,2.358,0.063,3.443-0.84
		c0.833-0.69,1.961-1.205,3.022-1.401c1.668-0.317,3.396-0.414,5.09-0.394c1.274,0.01,1.248-0.958,1.479-1.645
		c0.126-0.38-0.113-1.088-0.434-1.378c-1.411-1.274-2.906-2.445-4.387-3.666c-2.042,1.36-3.283,1.227-5.472-0.601
		C641.31,162.679,640.396,165.968,639.468,169.331 M661.042,130.754c0.344-2.398,0.677-4.733,1.027-7.168
		c-2.99-0.814-5.081-3.456-8.54-3.209c-1.125,2.575-2.318,5.304-3.513,8.033c0.34,0.01,0.454-0.077,0.561-0.18
		c3.062-3.179,5.924-2.585,7.499,1.528c0.11,0.287,0.486,0.571,0.797,0.65C659.518,130.587,660.201,130.631,661.042,130.754
		 M599.057,172.223c1.074-0.197,1.931-0.354,2.835-0.517c0.337-1.845,1.051-3.319,3.063-3.886c2.067-0.584,3.316,0.77,4.95,1.638
		c-1.154-2.615-2.309-5.224-3.437-7.766c-1.23,0.22-2.341,0.233-3.276,0.637c-1.518,0.654-2.932,1.544-4.36,2.385
		c-0.33,0.197-0.784,0.621-0.75,0.887C598.344,167.776,598.703,169.942,599.057,172.223 M667.554,128.359
		c-0.134,0.987-0.12,2.145-0.468,3.183c-0.569,1.738,0.334,2.508,1.668,3.128c0.214,0.101,0.478,0.244,0.675,0.2
		c3.182-0.697,6.365-1.424,9.827-2.208c-2.459-1.662-4.787-3.25-7.14-4.804c-0.207-0.137-0.556-0.12-0.823-0.083
		C670.095,127.942,668.897,128.142,667.554,128.359 M592.524,169.804c-1.344-0.217-2.491-0.42-3.642-0.581
		c-0.317-0.043-0.723-0.063-0.964,0.097c-2.345,1.541-4.661,3.123-7.146,4.791c3.486,0.777,6.616,1.484,9.758,2.155
		c0.854,0.184,2.689-1.241,2.603-1.985C592.952,172.78,592.729,171.286,592.524,169.804 M696.516,191.545
		c-0.106,0.023-0.214,0.043-0.319,0.063c0.089,0.547,0.126,1.108,0.27,1.638c1.141,4.25,2.238,8.513,3.479,12.733
		c0.748,2.522,1.509,5.084,2.658,7.436c2.179,4.447,6.582,6.542,11.677,5.821c-0.301-0.164-0.49-0.294-0.698-0.384
		c-5.664-2.616-9.817-6.722-12.206-12.507c-1.004-2.438-1.885-4.931-2.708-7.439C697.874,196.479,697.227,194.003,696.516,191.545
		 M524.266,130.467c-0.054,0.287-0.027,0.504-0.124,0.624c-0.481,0.591-0.958,1.588-1.504,1.631
		c-1.081,0.087-1.045-1.031-1.128-1.855c-0.083-0.867-0.293-1.734-0.257-2.592c0.02-0.487,0.46-1.397,0.624-1.378
		c1.614,0.19,2.242-1.331,3.496-1.788c-2.285-1.812-4.816-1.621-6.251,0.667c-1.434,2.295-1.798,4.863-0.614,7.436
		c0.654,1.424,1.829,2.048,3.423,2.099c2.688,0.07,3.339-2.085,4.55-3.82C525.683,131.117,525.032,130.821,524.266,130.467
		 M733.588,90.049c0.497,0.777,0.91,1.438,1.334,2.085c0.972,1.498,2.359,1.958,4.066,1.658c1.672-0.294,2.68-1.431,2.893-2.939
		c0.217-1.541,0.196-3.226-0.183-4.733c-0.921-3.636-3.816-4.633-7.042-2.516c1.243,0.487,1.827,1.999,3.445,1.832
		c0.196-0.017,0.657,0.927,0.7,1.447c0.058,0.654-0.229,1.324-0.307,1.999c-0.103,0.92,0.356,2.212-0.98,2.429
		c-1.284,0.207-1.451-1.028-1.725-1.961c-0.027-0.083-0.113-0.15-0.177-0.233C734.996,89.402,734.376,89.685,733.588,90.049
		 M563.903,233.094c-0.113-0.024-0.22-0.054-0.33-0.077c-0.117,0.351-0.237,0.701-0.357,1.054c-1.487,4.555-2.812,9.171-4.51,13.644
		c-1.941,5.127-5.548,8.944-10.328,11.633c-0.834,0.467-1.701,0.87-2.715,1.391c6.265,0.487,10.534-1.838,12.523-7.443
		c1.995-5.614,3.429-11.428,5.077-17.16C563.549,235.146,563.693,234.111,563.903,233.094 M628.266,189.346
		c5.805-3.779,11.936-6.648,16.599-11.795c-0.924-0.538-1.741-1.018-2.661-1.552c-0.357,0.734-0.788,1.348-0.95,2.025
		c-0.305,1.24-1.032,2.108-2.227,2.241c-1.547,0.167-3.122,0.04-4.81,0.04C632.43,183.025,630.428,186.064,628.266,189.346
		 M615.302,218.956c2.342,3.009,11.983,9.794,16.34,11.563c-1.968-2.982-3.997-6.052-6.065-9.184
		c-1.524,0.774-3.195,0.86-4.974,0.28c-2.025-0.665-1.458-3.063-2.913-4.094C616.877,218.009,616.093,218.482,615.302,218.956
		 M583.658,193.913c4.57,0.37,8.687,0.697,12.923,1.044c-0.143-0.681-0.247-1.204-0.366-1.721c-0.617-2.786-0.621-2.775-3.423-2.905
		c-1.028-0.041-2.235-0.551-3.029-0.167C587.734,191.145,585.89,192.506,583.658,193.913 M669.691,80.322
		c-0.12,0.08-0.242,0.154-0.363,0.227c0.494,2.905,0.991,5.818,1.444,8.503c2.839-0.533,5.531-1.044,8.684-1.638
		C676.033,84.932,672.864,82.626,669.691,80.322 M580.612,128.836c3.193,0.607,5.895,1.121,8.704,1.655
		c0.454-2.726,0.935-5.631,1.495-8.987C587.248,124.069,584.062,126.354,580.612,128.836 M676.407,152.468
		c-2.179-1.381-4.06-2.575-5.949-3.753c-0.146-0.097-0.369-0.11-0.556-0.097c-1.559,0.117-3.123,0.21-4.674,0.4
		c-0.334,0.037-0.821,0.377-0.904,0.667c-0.337,1.207-0.537,2.452-0.816,3.833C667.781,153.171,671.887,152.838,676.407,152.468
		 M728.504,111.322c1.191,2.145,3.21,2.589,4.867,1.365c2.038-1.508,2.612-5.001,1.274-7.806c-1.067-2.249-3.099-3.069-5.787-2.399
		c0.61,1.041,1.237,2.108,1.623,2.766c0.895,0.393,1.658,0.513,2.039,0.954c0.631,0.721-0.417,4.21-1.304,4.641
		c-0.327,0.157-0.751,0.1-1.124,0.167C729.615,111.089,729.142,111.192,728.504,111.322 M531.628,152.728
		c-0.725-0.106-1.251-0.257-1.771-0.24c-0.987,0.03-1.588-0.387-1.835-1.321c-0.152-0.567-0.26-1.144-0.439-1.705
		c-0.607-1.941-0.101-2.579,1.801-2.436c0.633-1.091,1.228-2.111,1.828-3.136l-0.1-0.42c-1.415,0.347-3.025,0.374-4.203,1.104
		c-2.696,1.674-2.949,6.976-0.65,9.184C527.935,155.377,530.283,155.073,531.628,152.728 M537.465,166.098
		c-0.062-0.15-0.136-0.3-0.203-0.45c-2.045-0.694-4-0.154-5.09,1.678c-0.714,1.194-1.208,2.558-1.576,3.906
		c-0.673,2.435,0.392,4.5,2.656,5.504c2.035,0.9,4.117,0.23,5.725-1.998c-0.47,0-0.82-0.09-1.1,0.013
		c-2.206,0.837-3.998,0.34-4.744-1.361c-0.814-1.832,0.27-4.931,1.951-5.785C535.917,167.179,536.675,166.606,537.465,166.098
		 M721.325,133.216c1.692,2.472,3.773,3.019,5.825,1.918c2.228-1.197,2.955-3.112,2.191-5.871c-0.221-0.797-0.471-1.601-0.821-2.352
		c-1.158-2.515-2.979-3.366-5.984-2.691c0.583,0.63,0.983,1.397,1.605,1.667c1.935,0.851,2.958,2.162,3.062,4.347
		c0.126,2.652-2.148,4.25-4.64,3.276C722.172,133.356,721.738,133.313,721.325,133.216 M638.921,240.279
		c0.106-0.086,0.22-0.177,0.33-0.27c-0.617-0.771-1.121-1.701-1.885-2.298c-2.489-1.978-5.017-3.913-7.64-5.714
		c-5.478-3.773-11.255-7.139-16.032-11.873c-0.343-0.337-1.134-0.217-1.721-0.314c-0.05,0.164-0.094,0.324-0.146,0.48
		c7.492,7.326,17.68,11.095,25.009,18.645C637.396,239.515,638.214,239.839,638.921,240.279 M596.878,130.497
		c-0.55-5.758-1.098-11.429-1.644-17.077c-2.296,5.504-0.805,11.342-1.729,17.077H596.878z M621.321,198.087
		c0.147,0.133,0.293,0.267,0.444,0.4c0.587-0.4,1.217-0.761,1.757-1.211c0.941-0.784,1.762-1.728,2.76-2.425
		c4.894-3.426,9.86-6.742,14.735-10.202c2.535-1.794,4.93-3.796,7.389-5.711c-0.097-0.2-0.201-0.411-0.3-0.614
		c-0.595,0.117-1.386,0.027-1.745,0.38c-3.973,3.923-8.657,6.885-13.234,10.011c-3.556,2.429-7.009,5.007-10.465,7.582
		C622.088,196.726,621.762,197.483,621.321,198.087 M664.831,72.075c-0.544,5.638-1.084,11.302-1.621,16.914h3.252
		c-0.063-1.401-0.063-2.672-0.187-3.934C665.869,80.719,666.767,76.241,664.831,72.075 M551.907,218.323
		c-1.447-0.127-2.515-0.34-3.576-0.29c-2.028,0.096-3.85-1.075-4.364-2.97c-0.434-1.584,0.376-3.286,1.925-4.046
		c1.479-0.727,2.001-1.277,2.852-2.999c-3.713,0.49-5.805,2.245-6.292,5.294c-0.393,2.468,1.094,5.261,3.369,6.325
		C548.224,220.761,549.972,220.49,551.907,218.323 M714.819,155.177c1.569,2.218,3.77,2.662,6.089,1.318
		c2.745-1.595,3.466-4.38,1.938-7.496c-1.271-2.595-3.036-3.67-4.813-2.982c0.14,1.555,0.917,2.545,2.44,3.039
		c0.464,0.154,0.871,0.787,1.105,1.291c0.684,1.491,0.316,3.046-0.844,3.993c-1.488,1.224-3.1,1.224-4.831-0.027
		C715.574,154.579,715.234,154.849,714.819,155.177 M708.185,176.81c1.769,2.201,3.753,2.519,6.128,1.367
		c2.47-1.194,3.81-4.14,3.18-6.956c-0.607-2.695-3.112-4.513-6.275-4.55c0.422,0.594,0.818,1.208,1.274,1.775
		c0.277,0.34,0.594,0.754,0.981,0.884c1.961,0.654,3.049,2.285,2.662,4.124c-0.403,1.911-2.288,3.279-4.203,3.185
		C710.808,176.583,709.676,176.737,708.185,176.81 M542.069,187.212c-0.474,0-0.944-0.081-1.378,0.016
		c-2.225,0.498-4.157,3.316-4.243,6.122c-0.07,2.248,1.605,4.457,3.886,5.107c2.152,0.621,3.773-0.003,4.854-1.881
		c-0.361-0.297-0.73-0.598-1.151-0.94c-1.018,1.391-2.302,1.274-3.606,0.764c-1.269-0.5-2.162-1.365-2.242-2.809
		c-0.073-1.298,0.22-2.639,1.457-3.129C541.145,189.87,541.903,188.953,542.069,187.212 M595.708,151.553
		c1.228-0.287,2.398-0.34,3.329-0.847c0.657-0.364,1.494-1.435,1.374-2.001c-0.404-1.875-1.201-3.667-1.881-5.567
		c-0.961,0.4-1.829,0.844-2.743,1.121c-0.92,0.277-1.237,0.734-1.046,1.694C595.11,147.814,595.394,149.696,595.708,151.553
		 M665.505,103.339c-1.432-0.59-2.678-1.107-3.986-1.644c-0.61,1.761-1.19,3.452-1.777,5.14c-0.28,0.804,0.471,2.269,1.29,2.476
		c1.062,0.27,2.115,0.524,3.319,0.817C664.728,107.92,665.111,105.681,665.505,103.339 M701.971,192.245
		c0.22,2.458,0.996,3.296,3.028,3.786c2.789,0.681,5.488-1.121,5.391-3.593c-0.096-2.458-2.354-5.141-4.977-5.821
		c0.033,0.697,0.063,1.365,0.096,2.045c0.571,0.153,1.218,0.146,1.563,0.463c0.554,0.507,1.234,1.211,1.28,1.875
		c0.107,1.494-1.17,2.165-2.321,2.719c-0.995,0.48-1.875,0.15-2.626-0.681C703.122,192.736,702.644,192.609,701.971,192.245
		 M554.723,227.9c-1.949,0.664-3.243,1.812-4.184,3.356c-1.101,1.809-1.114,3.787-0.109,4.971c0.996,1.18,3.699,1.777,5.333,0.98
		c0.821-0.4,1.519-1.142,2.122-1.855c0.201-0.241-0.049-0.871-0.092-1.328c-0.395,0.164-0.888,0.234-1.155,0.514
		c-0.827,0.854-1.727,1.124-2.775,0.55c-1.188-0.647-2.439-1.394-2.132-2.979c0.124-0.63,0.864-1.191,1.431-1.651
		c0.297-0.237,0.827-0.187,1.311-0.28C554.548,229.474,554.623,228.81,554.723,227.9 M567.786,231.57
		c-2.008,0.473-1.838,0.513-2.235,2.278c-0.693,3.092-1.575,6.148-2.449,9.197c-1.008,3.505-2.092,6.998-3.139,10.491
		C563.309,246.534,566.898,239.615,567.786,231.57 M692.43,190.18c-0.061,4.093,4.336,16.977,7.425,21.41
		c-0.95-3.519-2.068-6.989-3.065-10.491c-0.843-2.949-1.664-5.918-2.265-8.924C694.258,190.834,693.734,190.227,692.43,190.18
		 M562.796,206.059c-0.761-2.715-1.461-5.307-2.209-7.886c-0.587-2.008-0.617-2.001-2.865-1.491c0.623,2.462,1.24,4.921,1.865,7.379
		C560.146,206.263,560.15,206.263,562.796,206.059 M697.253,164.594c2.729,0.2,2.723,0.2,3.253-1.979
		c0.454-1.848,0.931-3.692,1.385-5.544c0.153-0.63,0.26-1.271,0.386-1.909c-0.099-0.14-0.202-0.273-0.3-0.41
		c-0.711,0.29-1.885,0.416-2.052,0.897C698.921,158.543,698.144,161.518,697.253,164.594 M543.26,153.025
		c1.708,3.449,3.33,6.795,5.048,10.088c0.197,0.38,0.951,0.471,1.441,0.697c-0.958-3.376-2.152-6.418-3.333-9.464
		C545.683,152.427,545.688,152.425,543.26,153.025 M537.015,133.673c0.701,2.706,1.421,5.291,2.001,7.906
		c0.301,1.344,0.884,1.978,2.288,1.634c0.281-0.066,0.578-0.066,1.055-0.124c-1.004-2.725-2.035-5.354-2.922-8.033
		C539.054,133.927,538.429,133.492,537.015,133.673 M723.037,92.414c-0.124-0.117-0.244-0.237-0.367-0.357
		c-0.551,0.21-1.441,0.29-1.595,0.664c-1.188,2.913-2.235,5.878-3.437,9.131c1.258-0.444,2.603,0.801,3.089-0.824
		C721.579,98.182,722.272,95.29,723.037,92.414 M710.106,121.994l0.21,0.4c0.477-0.203,1.201-0.273,1.381-0.627
		c1.748-3.359,3.409-6.762,5.231-10.425c-1.248,0.2-2.332-0.87-2.936,0.708C712.726,115.379,711.404,118.681,710.106,121.994
		 M660.679,153.768c0.529-2.341,1.057-4.563,1.527-6.792c0.474-2.238,0.437-2.258-1.862-2.712c-0.653,2.789-1.311,5.587-1.994,8.5
		C659.057,153.075,659.761,153.375,660.679,153.768 M601.722,194.203c-0.707-3.005-1.371-5.814-2.055-8.73
		c-0.834,0.393-1.484,0.701-2.252,1.064c0.667,2.909,1.315,5.728,1.985,8.657C600.325,194.801,600.985,194.517,601.722,194.203
		 M709.803,214.673c2.371,1.268,4.523,2.412,6.675,3.559c0.104-0.12,0.204-0.243,0.308-0.367c-0.787-2.042-1.571-4.076-2.449-6.338
		c-0.623,0.704-0.957,1.125-1.337,1.495c-0.337,0.333-0.728,0.614-1.095,0.917c-0.066-0.077-0.137-0.157-0.204-0.233
		c0.378-0.974,0.751-1.952,1.125-2.926c-0.11-0.053-0.224-0.104-0.337-0.156C711.664,211.867,710.837,213.109,709.803,214.673
		 M555.249,175.132c0.681,2.632,1.354,5.264,2.029,7.899c0.57,2.225,0.567,2.225,3.105,1.794c-1.038-2.912-2.102-5.791-3.085-8.69
		C556.944,175.095,556.407,174.695,555.249,175.132 M704.832,133.663c-1.12-0.347-1.707-0.08-2.027,0.94
		c-0.438,1.398-1.012,2.756-1.495,4.14c-0.537,1.538-1.034,3.089-1.561,4.671c2.512,0.343,2.505,0.343,3.056-1.839
		C703.465,138.967,704.136,136.372,704.832,133.663 M543.287,259.267c0.114,0.14,0.217,0.28,0.323,0.42
		c2.175-1.181,4.354-2.355,6.649-3.603c-1.034-1.542-1.862-2.775-2.688-4.009l-0.347,0.167c0.39,0.991,0.784,1.985,1.174,2.973
		c-0.106,0.069-0.217,0.14-0.32,0.21c-0.63-0.777-1.255-1.552-1.881-2.332c-0.185,0.043-0.367,0.083-0.558,0.126
		C544.854,255.231,544.071,257.253,543.287,259.267 M561.187,196.385c1,3.206,1.915,6.292,2.963,9.327
		c0.139,0.411,0.937,0.598,1.434,0.885c0.11-0.121,0.227-0.241,0.34-0.364c-0.703-3.269-1.408-6.542-2.121-9.847H561.187z
		 M694.153,164.781c0.114,0.13,0.229,0.257,0.338,0.387c0.5-0.296,1.301-0.48,1.44-0.894c1.041-3.042,1.952-6.135,2.927-9.274
		h-2.609C695.542,158.299,694.851,161.541,694.153,164.781 M553.501,265.696c2.542,1.168,4.677,2.148,6.812,3.129
		c-1.298-2.929-1.21-5.748-0.366-8.646C558.352,262.497,556.834,264.772,553.501,265.696 M705.977,224.43
		c-1.207-0.924-2.556-1.724-3.605-2.815c-1.032-1.064-1.759-2.418-2.619-3.646c1.254,3.122,1.444,6.214-0.42,9.637
		c2.271-1.061,4.075-1.898,5.877-2.746C705.542,224.704,705.854,224.497,705.977,224.43 M594.907,107.996
		c0-2.031-0.077-4.137,0.026-6.234c0.09-1.965-0.67-3.066-2.828-3.563c0,2.115-0.007,4.21,0.016,6.301
		c0.004,0.257,0.146,0.557,0.32,0.754C593.252,106.192,594.099,107.102,594.907,107.996 M667.974,56.806
		c-0.149-0.13-0.297-0.26-0.443-0.383c-0.808,0.867-2.178,1.661-2.302,2.615c-0.327,2.515-0.11,5.097-0.11,7.559
		c0.851-0.944,1.695-1.845,2.492-2.789c0.199-0.223,0.347-0.577,0.35-0.874C667.987,60.897,667.974,58.852,667.974,56.806
		 M719.957,92.651c-1.711,0.03-5.377,5.731-5.718,8.653c0.715,0.073,1.429,0.154,2.18,0.237c0.133-0.273,0.256-0.48,0.343-0.7
		C717.813,98.156,718.856,95.47,719.957,92.651 M546.255,142.484c-1.535-2.729-2.961-5.341-4.48-7.893
		c-0.217-0.367-0.91-0.451-1.378-0.667c0.681,2.629,1.588,4.947,2.489,7.266C543.68,143.224,543.68,143.227,546.255,142.484
		 M603.537,171.906c0.844,0.207,1.747,0.694,2.572,0.587c2.067-0.273,4.343,1.855,3.876,3.88c-0.086,0.383-0.444,0.713-0.721,1.034
		c-0.431,0.494-0.901,0.95-1.521,1.598c2.162,0.144,3.243-0.857,3.003-2.552c-0.357-2.529-1.648-4.624-3.49-6.302
		C605.646,168.687,603.887,169.504,603.537,171.906 M696.365,97.602c-1.907,0.407-3.705,0.787-5.523,1.181
		c2.035,3.192,3.346,3.62,6.944,2.285c-0.27-0.521-0.572-1.021-0.786-1.555C696.756,98.929,696.597,98.315,696.365,97.602
		 M652.172,137.703c-0.367-0.607-0.567-1.368-0.995-1.541c-1.345-0.544-1.24-1.521-0.957-2.542c0.434-1.561,1.952-2.815,3.059-2.795
		c1.088,0.02,2.187-0.113,3.283-0.173c0.08-0.187,0.167-0.38,0.254-0.563c-0.521-0.627-0.941-1.614-1.578-1.795
		c-0.747-0.2-1.925,0.037-2.506,0.544c-1.708,1.508-2.869,3.445-3.336,5.728C649.002,136.498,649.85,137.532,652.172,137.703
		 M562.354,142.577c3.844,1.027,6.031,0.21,6.659-2.419c-1.757-0.364-3.516-0.727-5.238-1.084
		C563.302,140.248,562.845,141.366,562.354,142.577 M597.649,172.74c-0.343-2.385-0.667-4.67-1.014-7.112
		c-0.888,0.353-1.588,0.634-2.389,0.95c0.387,2.396,0.757,4.688,1.147,7.129C596.165,173.377,596.825,173.094,597.649,172.74
		 M664.665,132.272c0.31-1.882,0.587-3.606,0.88-5.325c0.361-2.055,0.098-2.371-2.151-2.472c-0.323,2.265-0.641,4.534-0.961,6.815
		C663.193,131.625,663.847,131.915,664.665,132.272 M678.412,253.499c-1.021,0.917-1.942,1.741-2.936,2.636
		c1.051,0.71,1.948,1.378,2.915,1.932c0.274,0.154,0.86,0.12,1.104-0.073c0.848-0.681,1.602-1.471,2.485-2.305
		C680.624,254.854,679.433,254.127,678.412,253.499 M581.604,294.955c-0.965,0.607-2.182,1.371-3.517,2.205
		c1.118,1.014,2.078,1.882,3.049,2.759c1.198-0.818,2.276-1.552,3.43-2.338C583.551,296.679,582.644,295.876,581.604,294.955
		 M650.443,151.05c-1.015-1.991-2.048-2.195-3.55-0.984c-2.185,1.765-2.792,4.15-2.658,6.792c0.023,0.517,0.257,1.231,0.644,1.461
		c0.341,0.214,1.015-0.103,1.535-0.19c-1.516-0.654-1.425-1.841-1.284-2.939c0.176-1.341,0.643-2.588,2.074-3.106
		C648.225,151.711,649.282,151.42,650.443,151.05 M609.648,192.415c1.022,0.387,1.882,0.871,2.799,1.034
		c1.701,0.297,2.135,1.544,2.446,2.912c0.283,1.241,0.18,2.375-1.239,2.966c1.431,0.854,2.142,0.664,2.209-0.651
		c0.134-2.729-0.35-5.26-2.638-7.135C611.699,190.294,610.712,190.457,609.648,192.415 M542.302,237.574
		c-1.571-3.85-3.206-7.854-4.82-11.807c-0.66,0.177-1.25,0.334-1.902,0.504c0.287,0.564,0.638,1.615,0.841,1.588
		c1.456-0.2,1.154,0.994,1.461,1.668c0.414,0.927,0.834,1.868,1.141,2.836c0.267,0.837,0.366,1.724,0.56,2.582
		c0.07,0.294,0.133,0.66,0.337,0.831C540.699,236.423,541.531,237.003,542.302,237.574 M722.583,184.339
		c-1.625,3.98-3.236,7.939-4.827,11.822c0.744-0.59,1.397-1.314,2.208-1.725c1.418-0.714-0.31-1.918,0.537-2.668
		c0.138-0.12,0.217-0.324,0.29-0.5c0.491-1.161,0.965-2.329,1.451-3.489c0.19-0.447,0.44-1.265,0.614-1.251
		c1.361,0.097,1.188-1.047,1.607-1.712C723.84,184.653,723.267,184.509,722.583,184.339 M591.685,145.626
		c0.38,2.672,0.73,5.174,1.151,8.16c0.713-0.73,1.638-1.248,1.601-1.702c-0.167-2.318-0.577-4.61-0.917-7.015
		C592.832,145.279,592.325,145.432,591.685,145.626 M666.553,103.639c-0.301,2.115-0.47,4.113-0.903,6.052
		c-0.345,1.541,0.386,1.948,1.65,2.208c0.366-2.599,0.714-5.107,1.081-7.719C667.761,104,667.223,103.84,666.553,103.639
		 M684.003,98.836c1.645,1.271,3.009,2.231,4.254,3.326c0.983,0.867,1.854,0.89,2.854,0.056c-0.733-1.134-1.461-2.255-2.194-3.382
		H684.003z M568.796,143.885c0.804,0.14,1.651,0.574,2.042,0.313c1.717-1.127,3.306-2.449,5.204-3.907
		c-1.738,0-3.052-0.033-4.364,0.024c-0.3,0.01-0.684,0.247-0.867,0.497C570.161,141.723,569.58,142.68,568.796,143.885
		 M718.507,216.778c0.217-0.267,0.854-0.694,0.83-1.071c-0.184-2.662-1.178-4.984-3.326-6.916c-0.356,0.617-0.653,1.145-0.96,1.668
		c0.136-0.023,0.27-0.054,0.406-0.077C716.451,212.468,717.442,214.546,718.507,216.778 M543.994,250.221
		c-2.085,2.097-3.263,4.433-3.27,7.385c0.374,0.227,0.774,0.467,0.874,0.53c1.051-2.191,2.068-4.31,3.196-6.655
		C544.695,251.328,544.388,250.838,543.994,250.221 M548.057,262.247c0.02,0.233,0.047,0.464,0.06,0.69
		c1.961-0.087,4.043,0.217,5.838-0.364c2.822-0.91,3.817-3.682,4.904-6.221C556.427,260.431,552.947,262.6,548.057,262.247
		 M679.556,251.985c0.698,0.437,1.374,0.9,2.085,1.301c2.059,1.151,2.063,1.141,3.446-0.797c-0.15-0.121-0.29-0.26-0.453-0.36
		c-0.588-0.357-1.168-0.721-1.771-1.048C680.954,250.04,680.95,250.043,679.556,251.985 M656.534,254.257
		c-1.066-0.911-1.994-1.711-2.948-2.522c-0.841,0.784-1.542,1.441-2.142,2.001c0.787,0.811,1.518,1.562,2.313,2.375
		C654.513,255.608,655.364,255.041,656.534,254.257 M707.905,122.121l0.39,0.15c1.487-3.669,2.976-7.329,4.511-11.102h-1.568
		C710.109,114.882,709.006,118.501,707.905,122.121 M580.632,293.427c-1.594-1.921-1.601-1.931-3.473-0.883
		c-0.753,0.423-1.481,0.893-2.222,1.341c-0.029,0.174-0.059,0.34-0.086,0.517c0.787,0.32,1.682,1.051,2.342,0.877
		C578.371,294.975,579.409,294.124,580.632,293.427 M603.547,295.699c1.147,0.754,2.074,1.358,2.952,1.938
		c0.785-0.827,1.478-1.561,2.239-2.354c-0.768-0.702-1.501-1.375-2.282-2.088C605.482,294.034,604.608,294.789,603.547,295.699
		 M547.423,152.688c1.269,4.3,4.076,10.592,4.791,10.705c-0.541-1.588-1.114-3.149-1.602-4.74c-0.5-1.638-1.008-3.282-1.354-4.96
		C549.024,152.588,548.524,152.314,547.423,152.688 M701.667,215.763c1.033,2.409,2.128,4.877,4.837,5.541
		c1.704,0.417,3.593,0.074,5.397,0.074l0.05-0.507C707.537,221.081,704.146,219.33,701.667,215.763 M689.348,175.799
		c-3.043-0.217-5.862-0.42-8.678-0.614c-0.017,0.136-0.033,0.277-0.046,0.414c2.799,0.724,5.604,1.444,8.536,2.198
		C689.224,177.11,689.27,176.596,689.348,175.799 M570.978,219.233c2.983-0.768,5.755-1.488,8.53-2.208
		c-0.016-0.126-0.033-0.253-0.05-0.383c-2.885,0.2-5.771,0.396-8.759,0.6C570.812,218.052,570.888,218.566,570.978,219.233
		 M593.419,118.661h-0.187c-0.673,4.046-1.344,8.093-2.038,12.273c0.59-0.097,1.043-0.167,1.511-0.244
		C592.952,126.617,593.185,122.638,593.419,118.661 M668.897,89.539c-0.713-4.253-1.388-8.29-2.064-12.33
		c-0.06,0.01-0.117,0.02-0.178,0.026c0.234,3.98,0.468,7.959,0.705,11.993C667.817,89.319,668.237,89.406,668.897,89.539
		 M551.546,285.275c-1.181,0.49-2.202,0.907-3.316,1.364c0.487,0.895,0.895,1.635,1.331,2.446c1.168-0.491,2.185-0.914,3.326-1.395
		C552.414,286.839,552.02,286.132,551.546,285.275 M707.154,246.258c1.191,0.484,2.285,0.923,3.422,1.381
		c0.468-0.927,0.831-1.648,1.259-2.489c-1.171-0.45-2.206-0.844-3.306-1.265C708.068,244.68,707.664,245.384,707.154,246.258
		 M665.288,253.346c3.46,2.235,3.46,2.235,4.547,0.524c-0.771-0.904-1.524-1.785-2.172-2.545
		C666.763,252.089,666.068,252.676,665.288,253.346 M590.07,295.402c1.888,1.592,1.925,1.587,4.55-0.677
		c-0.627-0.651-1.248-1.301-1.928-2.015C591.791,293.631,590.957,294.482,590.07,295.402 M591.911,291.596
		c-2.165-0.104-3.957-0.191-5.757-0.274c-0.034,0.12-0.067,0.237-0.107,0.353c0.844,0.911,1.688,1.815,2.582,2.773
		C589.74,293.484,590.684,292.66,591.911,291.596 M671.463,253.033c0.91-1.008,1.759-1.958,2.839-3.167
		c-2.277,0.107-4.05,0.194-6.114,0.294C669.398,251.221,670.366,252.073,671.463,253.033 M637.347,287.026
		c0.987,0.413,1.882,0.787,2.849,1.187c0.631-3.249,0.631-3.249-1.888-4.046C638.004,285.064,637.704,285.962,637.347,287.026
		 M583.078,294.031c0.984,0.901,1.888,1.728,2.812,2.579c0.625-0.471,1.111-0.841,1.618-1.228c-0.834-1.028-1.591-1.955-2.389-2.939
		c-0.19,0.126-0.396,0.237-0.573,0.38C584.092,293.184,583.658,293.552,583.078,294.031 M695.938,252.419
		c-2.642-1.208-2.642-1.208-4.053,1.499C694.487,255.358,694.487,255.358,695.938,252.419 M564.146,293.851
		c1.411,2.989,1.411,2.989,4.06,1.48C566.772,292.686,566.702,292.66,564.146,293.851 M674.988,250.945
		c-0.822,1.007-1.58,1.945-2.432,2.993c0.537,0.396,1.062,0.787,1.662,1.23c0.954-0.89,1.828-1.708,2.782-2.595
		C676.25,251.962,675.617,251.454,674.988,250.945 M546.205,282.531c0.388,0.768,0.771,1.539,1.171,2.326
		c0.637-0.227,1.098-0.376,1.544-0.557c0.477-0.193,0.938-0.414,1.411-0.624C548.911,281.025,548.911,281.025,546.205,282.531
		 M622.682,219.336c1.611-0.137,2.248-0.867,2.099-2.415c-0.17-1.812-1.912-3.276-3.613-3.049
		C623.569,216.568,623.809,217.422,622.682,219.336 M709.733,242.318c1.02,0.38,1.961,0.73,2.935,1.094
		c0.271-0.47,0.474-0.794,0.639-1.14c0.187-0.384,0.333-0.785,0.489-1.168C711.271,239.535,711.098,239.578,709.733,242.318
		 M638.995,172.337c-2.215,0.113-3.833,1.745-3.747,3.62c0.06,1.274,0.765,1.891,2.152,1.881
		C636.246,176.05,636.52,175.042,638.995,172.337 M612.074,295.649c0.915,0.715,1.761,1.388,2.628,2.072
		c0.497-0.991,0.907-1.805,1.361-2.699c-0.514-0.441-1.021-0.87-1.547-1.318C613.695,294.358,612.944,294.952,612.074,295.649
		 M703.062,250.66c-1.058-0.493-2.02-0.943-3.056-1.427c-0.397,0.65-0.769,1.257-1.135,1.858
		C701.616,252.846,702.233,252.789,703.062,250.66 M560.073,290.649c-1.084,0.524-2.072,0.998-3.016,1.452
		c0.461,2.102,1.532,2.162,4.15,0.466C560.841,291.947,560.479,291.332,560.073,290.649 M619.9,291.489
		c-1.691-1.578-2.743-1.344-4.21,0.848c0.58,0.419,1.161,0.843,1.804,1.316C618.298,292.927,619.056,292.242,619.9,291.489
		 M691.966,250.948c-2.782-1.214-2.929-1.174-4.17,1.078c0.69,0.423,1.381,0.844,2.108,1.288
		C690.61,252.502,691.239,251.781,691.966,250.948 M706.464,133.619c-0.127-0.02-0.254-0.043-0.381-0.066
		c-0.813,3.336-1.631,6.668-2.448,10.001c0.11,0.089,0.217,0.183,0.327,0.276c0.284-0.237,0.761-0.437,0.813-0.721
		C705.376,139.951,705.91,136.785,706.464,133.619 M619.406,294.878c1.007,0.644,1.814,1.164,2.708,1.735
		c0.441-0.834,0.841-1.582,1.254-2.355c-0.63-0.544-1.174-1.018-1.738-1.501C620.903,293.447,620.246,294.078,619.406,294.878
		 M570.154,294.729c0.784-0.467,1.478-0.881,2.182-1.298c-1.501-2.278-1.808-2.345-4.163-0.952
		C568.823,293.217,569.461,293.941,570.154,294.729 M561.537,289.878c0.538,0.827,1.008,1.547,1.479,2.265
		c0.85-0.287,1.567-0.531,2.358-0.798c-0.551-0.974-0.998-1.764-1.508-2.666C563.069,289.094,562.348,289.465,561.537,289.878
		 M556.124,185.237l0.309-0.27c-0.823-3.326-1.644-6.649-2.471-9.975c-0.117,0.03-0.233,0.061-0.354,0.09
		c0.557,3.143,1.095,6.292,1.695,9.427C555.363,184.793,555.84,185,556.124,185.237 M698.534,248.402
		c-0.854-0.414-1.57-0.761-2.349-1.141c-0.511,0.935-0.95,1.732-1.464,2.673c0.86,0.273,1.613,0.514,2.389,0.757
		C697.606,249.891,698.037,249.203,698.534,248.402 M644.263,284.758c0.63-3.557,0.58-3.71-1.422-4.25
		c-0.07,0.623-0.05,1.273-0.23,1.854C642.146,283.833,642.737,284.531,644.263,284.758 M575.092,296.373
		c-0.508-0.667-0.927-1.211-1.354-1.775c-0.912,0.497-1.658,0.907-2.515,1.375c0.646,0.787,1.16,1.411,1.721,2.095
		c0.394-0.343,0.708-0.64,1.047-0.904C574.364,296.87,574.768,296.606,575.092,296.373 M688.733,254.668
		c-2.146-1.789-2.259-1.782-3.803,0.207c0.717,0.55,1.434,1.1,2.237,1.714C687.669,255.974,688.16,255.371,688.733,254.668
		 M662.192,256.352c2.195,1.632,2.256,1.635,4.153,0.07C664.088,254.447,664.063,254.447,662.192,256.352 M597.909,297.71
		c-0.644-0.553-1.188-1.027-1.745-1.51c-0.764,0.47-1.424,0.88-2.084,1.291c-0.167,0.104-0.331,0.2-0.518,0.314
		C595.767,299.415,595.794,299.412,597.909,297.71 M630.438,285.235c-0.336,1.248-0.577,2.139-0.84,3.112
		c0.403,0.164,0.797,0.317,1.297,0.517c0.574-0.943,1.118-1.845,1.652-2.732C630.989,284.997,630.989,284.997,630.438,285.235
		 M638.741,282.165c1.007,0.437,1.658,0.721,2.352,1.021c0.25-0.912,0.51-1.695,0.657-2.505c0.06-0.317-0.043-0.901-0.227-0.974
		c-0.32-0.134-0.929-0.106-1.128,0.113C639.806,280.477,639.354,281.258,638.741,282.165 M531.918,280.611
		c1.862,1.174,3.389,0.233,5.178-0.01c-0.558-0.768-0.961-1.331-1.325-1.832C534.453,279.4,533.292,279.953,531.918,280.611
		 M727.9,239.379c0.023-0.161,0.047-0.324,0.073-0.488c-0.69-0.126-1.434-0.129-2.048-0.416c-0.554-0.254-0.965-0.817-1.535-1.338
		c-0.53,0.777-0.91,1.328-1.4,2.041C724.747,239.412,726.283,240.273,727.9,239.379 M556.21,290.498
		c1.074-0.477,1.988-0.881,2.906-1.288c-0.995-1.925-1.197-1.945-3.827-0.377C555.566,289.334,555.843,289.831,556.21,290.498
		 M610.452,296.679c-0.8,0.695-1.535,1.345-2.269,1.992c0.05,0.187,0.107,0.374,0.154,0.56c1.408-0.1,2.816-0.204,4.671-0.337
		C611.957,297.987,611.25,297.37,610.452,296.679 M701.006,247.638c2.532,1.681,2.855,1.651,3.703-0.274
		C702.09,245.817,701.986,245.824,701.006,247.638 M654.039,258.176c2.146,0.861,3.183-0.824,4.811-1.557
		c-0.553-0.517-0.917-0.857-1.287-1.208C656.368,256.349,655.267,257.216,654.039,258.176 M705.813,245.627
		c0.437-0.768,0.824-1.451,1.228-2.156c-1.509-0.63-2.745-0.33-4.066,0.904c0.077,0.047,0.153,0.117,0.239,0.154
		C704.015,244.869,704.818,245.207,705.813,245.627 M642.116,285.981c-0.093,0.488-0.192,0.944-0.267,1.408
		c-0.073,0.471-0.13,0.947-0.199,1.494c0.612,0.25,1.181,0.481,1.761,0.714C644.263,286.835,644.263,286.835,642.116,285.981
		 M725.288,232.947c-2.114-1.24-2.734-0.854-2.893,1.661c0.562,0.19,1.135,0.384,1.759,0.594
		C724.561,234.391,724.905,233.704,725.288,232.947 M534.77,274.439c0.421,0.751,0.844,1.508,1.271,2.269
		c0.771-0.354,1.292-0.591,1.795-0.824C537.099,273.225,536.834,273.095,534.77,274.439 M601.345,298.054
		c1.495,0.817,2.583,2.372,4.664,1.544c-1.234-0.967-2.368-1.858-3.549-2.792C602.073,297.234,601.759,297.591,601.345,298.054
		 M557.104,285.872c-1.315-0.731-2.442-2.062-4.077-0.921c0.411,0.69,0.8,1.348,1.248,2.099
		C555.269,286.635,556.19,286.255,557.104,285.872 M690.262,248.156c3.211,1.551,3.064,1.564,4.533-1.205
		C693.183,247.382,691.726,247.769,690.262,248.156 M687.806,249.576c-1.491-1.324-2.962-0.391-4.768-0.323
		c1.332,0.767,2.336,1.338,3.427,1.958C686.905,250.67,687.329,250.157,687.806,249.576 M576.566,290.742
		c-1.395-0.073-2.902-1.178-4.224,0.326C573.767,292.85,573.01,293.101,576.566,290.742 M593.886,291.606
		c2.075,2.682,2.993,2.772,4.53,0.494C596.928,291.94,595.587,291.793,593.886,291.606 M706.974,114.101
		c0.244-0.98,0.464-1.851,0.715-2.858c-1.405,0.1-2.563,0.19-4.001,0.297C704.902,112.487,705.85,113.227,706.974,114.101
		 M661.513,250.67c1.907,2.275,2.741,2.169,4.56-0.457C664.485,250.374,663.12,250.511,661.513,250.67 M692.565,176.403
		c-0.437,2.576-0.437,2.576,1.852,2.869c0.027-0.433,0.067-0.864,0.084-1.294c0.014-0.42,0.004-0.837,0.004-1.334
		C693.79,176.556,693.227,176.487,692.565,176.403 M565.204,288.346c1.458,2.732,2.292,2.966,4.875,1.338
		C568.38,289.221,566.918,288.817,565.204,288.346 M556.404,152.971c-1.524-0.103-2.716-0.187-4.057-0.277
		c0.263,0.984,0.487,1.828,0.754,2.818C554.242,154.633,555.197,153.899,556.404,152.971 M637.327,283.35
		c-0.688-0.23-1.314-0.438-1.938-0.647c-0.191,0.724-0.55,1.464-0.504,2.172c0.033,0.434,0.685,0.824,1.174,1.368
		C636.533,285.161,636.88,284.37,637.327,283.35 M565.624,220.754c2.328-0.424,2.328-0.424,1.849-2.853
		c-0.588,0.054-1.188,0.113-1.849,0.174V220.754z M627.469,288.596c-0.811-0.406-1.479-0.874-2.205-1.023
		c-0.187-0.037-0.581,0.93-0.887,1.454c0.754,0.557,1.341,0.98,2.027,1.481C626.735,289.908,627.016,289.407,627.469,288.596
		 M633.63,291.969c-2.135-1.128-2.212-1.104-3.059,1.021c0.817,0.244,1.632,0.494,2.492,0.75
		C633.277,293.068,633.437,292.567,633.63,291.969 M650.137,278.056c-0.507-1.479,0.551-3.236-1.421-4.183
		C648.259,277.025,648.462,277.772,650.137,278.056 M636.85,288.794c-0.237,0.65-0.438,1.177-0.63,1.707
		c2.338,1.155,2.661,1.091,3.201-0.67C638.634,289.515,637.833,289.191,636.85,288.794 M660.564,255.414
		c0.707-0.627,1.194-1.058,1.765-1.562c-0.771-0.507-1.396-0.923-2.071-1.371c-0.394,0.474-0.747,0.901-1.114,1.345
		C659.641,254.381,660.051,254.844,660.564,255.414 M632.623,289.614c0.728,0.207,1.265,0.368,1.854,0.541
		c0.365-0.844,0.667-1.542,0.995-2.285c-0.541-0.33-0.938-0.571-1.381-0.838C633.594,287.91,633.164,288.667,632.623,289.614
		 M601.038,295.362c-0.511-0.587-0.897-1.034-1.268-1.464c-0.741,0.527-1.325,0.937-2.015,1.428c0.614,0.51,1.154,0.95,1.818,1.504
		C600.121,296.279,600.558,295.84,601.038,295.362 M716.498,236.783c1.241,0.237,2.032,0.391,2.919,0.567
		c0.28-0.638,0.561-1.272,0.891-2.028C718.623,234.768,717.953,236.123,716.498,236.783 M540.175,276.388
		c-0.114,0.153-0.227,0.303-0.337,0.453c0.273,0.65,0.537,1.298,0.814,1.961c0.9-0.207,1.685-0.383,2.958-0.67
		C542.216,277.426,541.195,276.907,540.175,276.388 M723.671,241.217c-1.021-0.15-1.822-0.267-2.51-0.367
		c-0.32-0.33-0.68-0.704-1.213-1.244c-0.257,0.65-0.401,1.018-0.584,1.484C720.818,241.33,721.976,242.885,723.671,241.217
		 M541.068,282.446c-0.624-0.534-0.917-0.998-1.244-1.028c-0.521-0.036-1.058,0.221-1.588,0.354c0.227,0.153,0.46,0.306,0.684,0.457
		c-0.771,0.144-1.547,0.29-2.479,0.464C538.099,284.32,539.25,282.766,541.068,282.446 M543.327,283.76
		c0.406,0.721,0.753,1.334,1.107,1.961c0.561-0.204,0.967-0.347,1.501-0.54c-0.323-0.765-0.617-1.448-0.948-2.216
		C544.364,283.266,543.894,283.49,543.327,283.76 M714.206,243.645c1.575,0.774,1.788,0.64,2.372-1.441
		c-0.477-0.2-0.958-0.4-1.531-0.64C714.74,242.324,714.471,242.985,714.206,243.645 M720.688,238.088
		c0.501,0.233,0.911,0.427,1.411,0.66c0.421-0.69,0.788-1.297,1.231-2.025c-0.614-0.293-1.104-0.53-1.685-0.811
		C721.299,236.696,721.015,237.347,720.688,238.088 M729.759,230.982c-0.604-0.507-1.102-0.911-1.688-1.397
		c-0.311,0.75-0.543,1.317-0.824,2.004c0.574,0.297,1.099,0.574,1.672,0.871C729.225,231.92,729.461,231.509,729.759,230.982
		 M726.47,233.488c-0.431,0.817-0.781,1.481-1.191,2.255c0.564,0.223,0.98,0.386,1.438,0.56c0.409-0.724,0.753-1.331,1.113-1.968
		C727.34,234.025,726.977,233.801,726.47,233.488 M536.722,278.189c0.447,0.707,0.86,1.341,1.307,2.044
		c0.521-0.3,0.917-0.534,1.335-0.774c-0.347-0.767-0.64-1.414-0.967-2.125C537.789,277.645,537.315,277.879,536.722,278.189
		 M531.991,271c-0.64,0.56-1.148,1.001-1.688,1.467c0.337,0.544,0.607,0.978,0.907,1.458c0.607-0.357,1.094-0.645,1.588-0.941
		C532.518,272.294,532.298,271.754,531.991,271 M608.794,292.493c1.766,1.968,2.155,1.918,3.85-0.397
		C611.36,292.23,610.172,292.353,608.794,292.493 M672.777,258.323c-0.013,0.177-0.022,0.364-0.037,0.548
		c1.071,0.089,2.146,0.183,3.604,0.307C674.085,257.122,674.008,257.11,672.777,258.323 M646.053,282.269
		c-0.767,2.375-0.656,3.079,0.528,3.289C647.168,283.433,647.064,282.796,646.053,282.269 M542.272,281.855
		c0.735-0.297,1.395-0.561,2.122-0.851c-0.203-0.524-0.346-0.904-0.547-1.418c-0.777,0.34-1.46,0.642-2.251,0.981
		C541.853,281.062,542.045,281.422,542.272,281.855 M641.724,278.559c1.188,0.3,2.055,0.52,3.263,0.827
		c-0.234-0.844-0.417-1.481-0.598-2.115C643.564,277.668,642.744,278.069,641.724,278.559 M532.212,275.753
		c0.45,0.774,0.807,1.388,1.208,2.076c0.523-0.284,0.92-0.498,1.348-0.725c-0.417-0.777-0.761-1.411-1.154-2.135
		C533.159,275.227,532.745,275.45,532.212,275.753 M736.327,229.881c-0.181,0.067-0.357,0.13-0.537,0.197
		c-0.22,0.441-0.446,0.877-0.714,1.402c0.843,0.33,1.521,0.593,2.205,0.86c0.14-0.157,0.283-0.307,0.427-0.457L736.327,229.881z
		 M715.668,239.566c0.804,0.32,1.421,0.567,2.157,0.857c0.234-0.474,0.425-0.867,0.651-1.328c-0.828-0.34-1.488-0.617-2.239-0.931
		C716.038,238.654,715.885,239.038,715.668,239.566 M623.562,290.388c-0.356,0.46-0.613,0.791-0.95,1.218
		c0.624,0.477,1.177,0.9,1.821,1.394c0.35-0.457,0.627-0.811,0.917-1.191C624.723,291.312,624.199,290.899,623.562,290.388
		 M587.361,299.789c-1.298-1.21-1.501-1.177-3.346,0.591C585.227,300.396,586.451,301.144,587.361,299.789 M669.154,258.826
		c0.011-0.143,0.021-0.286,0.03-0.434c-0.456-0.33-0.914-0.66-1.388-1.007c-0.671,0.471-1.251,0.874-1.828,1.274
		c0.05,0.184,0.104,0.368,0.157,0.551C667.137,259.08,668.145,258.954,669.154,258.826 M648.723,279.54
		c-0.214,2.432-0.161,2.512,1.567,2.495c-0.083-0.71-0.167-1.424-0.26-2.202C649.603,279.74,649.196,279.646,648.723,279.54
		 M593.926,300.676c0.014-0.19,0.027-0.371,0.047-0.557c-1.698-1.487-1.698-1.487-3.275,0.13
		C591.944,300.416,592.938,300.547,593.926,300.676 M524.226,271.51c-1.789,0.705-1.789,0.705-1.375,2.265
		c0.708-0.297,1.398-0.584,2.182-0.907C524.695,272.307,524.458,271.898,524.226,271.51 M530.883,278.699
		c-0.427-0.54-0.8-1.011-1.027-1.304c-0.761,0.3-1.352,0.533-1.995,0.79C528.722,278.953,529.557,279.64,530.883,278.699
		 M601.869,294.278c0.693-0.604,1.291-1.118,2.185-1.898c-1.408,0.184-2.522-0.733-3.51,0.617
		C600.998,293.434,601.405,293.831,601.869,294.278 M656.534,250.854c-0.056,0.104-0.112,0.211-0.172,0.317
		c0.593,0.534,1.193,1.068,1.837,1.651c0.497-0.547,0.874-0.97,1.604-1.777C658.437,250.961,657.489,250.911,656.534,250.854
		 M671.029,255.051c-0.446,0.36-0.87,0.701-1.368,1.101c0.995,0.86,1.812,1.661,2.763,0.109
		C671.983,255.878,671.551,255.505,671.029,255.051 M587.641,297.738c1.041,1.471,1.841,0.748,2.756-0.2
		c-0.491-0.365-0.931-0.691-1.388-1.032C588.488,296.977,588.068,297.354,587.641,297.738 M729.186,237.297
		c1.366,0.771,2.214,0.293,2.924-0.554c-0.636-0.287-1.217-0.544-1.867-0.837C729.942,236.3,729.599,236.749,729.186,237.297
		 M685.134,257.639c-2.088-1.361-2.088-1.361-3.506,0.68C682.805,258.09,683.869,257.886,685.134,257.639 M648.289,250.814
		c0.507,0.841,0.83,1.375,1.217,2.005c0.698-0.625,1.231-1.108,1.991-1.792C650.29,250.948,649.486,250.897,648.289,250.814
		 M618.104,296.443c-0.774,0.637-1.414,1.171-2.261,1.875c1.334-0.266,2.396-0.477,3.716-0.737
		C618.965,297.117,618.572,296.807,618.104,296.443 M578.477,299.756c-1.47-2.045-1.797-2.108-3.346-0.62
		C576.246,299.342,577.316,299.542,578.477,299.756 M605.455,206.44c-0.587,0.761-0.974,1.265-1.361,1.775
		c0.64,0.16,1.277,0.32,2.265,0.57C606.002,207.861,605.818,207.387,605.455,206.44 M531.261,278.722
		c0.864-0.399,1.234-0.573,1.955-0.907c-0.797-0.613-1.378-1.061-1.955-1.507V278.722z M580.609,291.022
		c1.044,1.754,1.075,1.754,3.172,0.21C582.644,291.159,581.689,291.093,580.609,291.022 M653.699,167.299
		c0.957-0.2,1.607-0.337,2.262-0.47c-0.387-0.524-0.783-1.044-1.361-1.815C654.243,165.922,654.057,166.395,653.699,167.299
		 M728.377,237.107c0.931-1.908,0.931-1.908-0.144-2.305c-0.347,0.554-0.696,1.115-1.091,1.741
		C727.62,236.763,727.964,236.917,728.377,237.107 M676.127,249.796c2.295,1.418,2.295,1.418,3.329-0.169
		C678.372,249.677,677.392,249.733,676.127,249.796 M563.589,221.502l0.447-0.087c-0.04-0.851-0.05-1.708-0.146-2.552
		c-0.02-0.157-0.387-0.273-0.594-0.407c-0.101,0.187-0.323,0.393-0.293,0.557C563.162,219.85,563.386,220.674,563.589,221.502
		 M728.675,228.553c0.92,0.354,1.424,0.554,1.971,0.764c0.274-0.627,0.491-1.131,0.708-1.625c-0.117-0.13-0.234-0.26-0.348-0.387
		C730.35,227.656,729.692,228.007,728.675,228.553 M531.424,269.928c-1.048-0.474-1.738-0.784-2.429-1.097
		c-0.081,0.127-0.164,0.254-0.247,0.381c0.23,0.507,0.454,1.01,0.721,1.587C530.043,270.54,530.52,270.329,531.424,269.928
		 M733.481,228.657c-0.32,0.687-0.561,1.204-0.817,1.754c1.519,1.048,1.381-0.547,2.058-1.024
		C734.278,229.124,733.955,228.934,733.481,228.657 M708.525,249.249c0.014-0.1,0.03-0.2,0.047-0.303
		c-0.73-0.32-1.461-0.64-2.242-0.984c-0.227,0.44-0.403,0.778-0.67,1.288H708.525z M551.533,290.358
		c0.021,0.127,0.046,0.254,0.07,0.38h2.855c-0.314-0.553-0.517-0.913-0.748-1.317C552.92,289.765,552.227,290.062,551.533,290.358
		 M525.51,270.76c0.79,1.645,0.79,1.645,1.891,1.041c-0.263-0.54-0.527-1.087-0.834-1.708
		C526.136,270.366,525.82,270.566,525.51,270.76 M734.202,233.317c-0.197,0.443-0.354,0.784-0.594,1.311h2.432
		c0.017-0.132,0.034-0.263,0.05-0.396C735.536,233.968,734.989,233.7,734.202,233.317 M697.177,177.22
		c-1.175-0.15-1.422,0.671-0.808,3.203C696.707,179.095,696.939,178.164,697.177,177.22 M526.547,276.104
		c-0.794-1.441-1.188-1.418-2.749,0H526.547z M649.703,283.733c-1.262-0.363-1.262-0.363-1.948,2.882
		C648.525,285.471,649.075,284.657,649.703,283.733 M525.807,268.458c-0.334-0.601-0.558-1.005-0.781-1.408l-0.471-0.017
		c-0.144,0.597-0.287,1.202-0.517,2.179C524.886,268.852,525.266,268.688,525.807,268.458 M560.153,175.072
		c0.187,0.55,0.326,0.951,0.507,1.481c0.721-0.497,1.274-0.88,2.155-1.481H560.153z M735.5,225.551l-0.498,0.05
		c-0.22,0.45-0.43,0.907-0.676,1.421c0.486,0.229,0.873,0.417,1.761,0.84C735.823,226.826,735.662,226.189,735.5,225.551"/>
	<path fill="#FFFFFF" d="M582.033,287.099c1.038,0.917,1.945,1.721,2.962,2.622c-1.164,0.79-2.235,1.521-3.432,2.338
		c-0.971-0.881-1.928-1.751-3.049-2.759C579.849,288.46,581.069,287.703,582.033,287.099"/>
	<path fill="#FFFFFF" d="M581.06,285.568c-1.225,0.697-2.258,1.544-3.437,1.852c-0.663,0.171-1.558-0.557-2.344-0.877
		c0.026-0.177,0.056-0.343,0.086-0.517c0.74-0.447,1.474-0.914,2.222-1.337C579.462,283.637,579.465,283.647,581.06,285.568"/>
	<path fill="#FFFFFF" d="M603.974,287.84c1.061-0.917,1.935-1.665,2.91-2.505c0.78,0.713,1.514,1.387,2.281,2.087
		c-0.761,0.794-1.455,1.532-2.235,2.353C606.042,289.194,605.125,288.594,603.974,287.84"/>
	<path fill="#FFFFFF" d="M551.973,277.418c0.48,0.854,0.868,1.565,1.342,2.415c-1.135,0.474-2.155,0.901-3.326,1.392
		c-0.438-0.808-0.841-1.551-1.328-2.449C549.772,278.323,550.789,277.905,551.973,277.418"/>
	<path fill="#FFFFFF" d="M590.493,287.54c0.897-0.921,1.731-1.771,2.625-2.689c0.681,0.714,1.301,1.358,1.925,2.015
		C592.425,289.131,592.392,289.134,590.493,287.54"/>
	<path fill="#FFFFFF" d="M592.342,283.736c-1.224,1.065-2.176,1.889-3.283,2.852c-0.894-0.957-1.738-1.864-2.582-2.771
		c0.033-0.117,0.07-0.233,0.103-0.354C588.382,283.543,590.173,283.633,592.342,283.736"/>
	<path fill="#FFFFFF" d="M637.773,279.167c0.354-1.068,0.662-1.962,0.961-2.859c2.522,0.794,2.522,0.794,1.888,4.046
		C639.655,279.947,638.761,279.58,637.773,279.167"/>
	<path fill="#FFFFFF" d="M583.504,286.172c0.581-0.484,1.021-0.852,1.468-1.208c0.18-0.144,0.383-0.254,0.574-0.38
		c0.797,0.98,1.555,1.911,2.389,2.938c-0.507,0.387-0.998,0.758-1.619,1.228C585.393,287.9,584.489,287.072,583.504,286.172"/>
	<path fill="#FFFFFF" d="M564.576,285.991c2.552-1.19,2.629-1.16,4.057,1.481C565.984,288.977,565.984,288.977,564.576,285.991"/>
	<path fill="#FFFFFF" d="M546.636,274.673c2.702-1.507,2.702-1.507,4.127,1.144c-0.478,0.207-0.938,0.431-1.411,0.624
		c-0.448,0.18-0.907,0.331-1.547,0.557C547.41,276.211,547.019,275.44,546.636,274.673"/>
	<path fill="#FFFFFF" d="M612.504,287.79c0.867-0.694,1.618-1.291,2.439-1.945c0.525,0.447,1.033,0.877,1.547,1.312
		c-0.451,0.9-0.861,1.711-1.361,2.702C614.262,289.177,613.415,288.507,612.504,287.79"/>
	<path fill="#FFFFFF" d="M560.503,282.789c0.401,0.68,0.764,1.301,1.127,1.918c-2.619,1.694-3.683,1.634-4.15-0.463
		C558.432,283.786,559.42,283.313,560.503,282.789"/>
	<path fill="#FFFFFF" d="M620.326,283.63c-0.841,0.757-1.598,1.438-2.404,2.165c-0.645-0.474-1.225-0.897-1.805-1.317
		C617.584,282.282,618.638,282.052,620.326,283.63"/>
	<path fill="#FFFFFF" d="M619.833,287.019c0.841-0.801,1.501-1.431,2.222-2.122c0.567,0.484,1.114,0.958,1.741,1.499
		c-0.414,0.777-0.81,1.521-1.254,2.358C621.647,288.183,620.84,287.663,619.833,287.019"/>
	<path fill="#FFFFFF" d="M570.585,286.869c-0.698-0.791-1.338-1.512-1.985-2.249c2.355-1.398,2.666-1.328,4.163,0.951
		C572.062,285.988,571.369,286.402,570.585,286.869"/>
	<path fill="#FFFFFF" d="M561.968,282.018c0.808-0.413,1.529-0.784,2.329-1.197c0.507,0.901,0.954,1.691,1.508,2.666
		c-0.788,0.267-1.508,0.511-2.362,0.798C562.976,283.564,562.509,282.846,561.968,282.018"/>
	<path fill="#FFFFFF" d="M575.521,288.517c-0.327,0.227-0.727,0.494-1.104,0.784c-0.34,0.267-0.654,0.563-1.048,0.907
		c-0.557-0.68-1.074-1.312-1.718-2.095c0.858-0.467,1.604-0.875,2.519-1.377C574.598,287.303,575.012,287.847,575.521,288.517"/>
	<path fill="#FFFFFF" d="M598.336,289.851c-2.116,1.701-2.142,1.706-4.344,0.098c0.187-0.118,0.351-0.217,0.511-0.317
		c0.663-0.414,1.331-0.817,2.087-1.291C597.149,288.823,597.695,289.297,598.336,289.851"/>
	<path fill="#FFFFFF" d="M630.864,277.375c0.554-0.234,0.554-0.234,2.113,0.9c-0.537,0.881-1.081,1.784-1.648,2.726
		c-0.504-0.197-0.898-0.354-1.302-0.514C630.291,279.513,630.528,278.623,630.864,277.375"/>
	<path fill="#FFFFFF" d="M556.641,282.639c-0.37-0.664-0.644-1.164-0.924-1.661c2.628-1.569,2.835-1.556,3.83,0.374
		C558.625,281.758,557.711,282.158,556.641,282.639"/>
	<path fill="#FFFFFF" d="M610.876,288.821c0.803,0.694,1.51,1.308,2.555,2.212c-1.852,0.133-3.26,0.24-4.664,0.343
		c-0.053-0.193-0.104-0.376-0.161-0.564C609.345,290.165,610.085,289.518,610.876,288.821"/>
	<path fill="#FFFFFF" d="M642.547,278.126c2.146,0.85,2.146,0.85,1.292,3.612c-0.578-0.233-1.146-0.464-1.763-0.713
		c0.074-0.55,0.121-1.024,0.201-1.495C642.351,279.063,642.457,278.61,642.547,278.126"/>
	<path fill="#FFFFFF" d="M601.776,290.195c0.414-0.463,0.727-0.818,1.111-1.244c1.188,0.93,2.318,1.821,3.553,2.788
		C604.357,292.56,603.267,291.012,601.776,290.195"/>
	<path fill="#FFFFFF" d="M557.535,278.011c-0.924,0.38-1.839,0.765-2.829,1.178c-0.447-0.75-0.838-1.408-1.252-2.102
		C555.092,275.947,556.213,277.285,557.535,278.011"/>
	<path fill="#FFFFFF" d="M576.99,282.883c-3.55,2.358-2.792,2.107-4.22,0.326C574.09,281.705,575.605,282.809,576.99,282.883"/>
	<path fill="#FFFFFF" d="M594.317,283.746c1.697,0.187,3.039,0.334,4.526,0.498C597.306,286.519,596.389,286.429,594.317,283.746"/>
	<path fill="#FFFFFF" d="M565.634,280.488c1.718,0.471,3.173,0.874,4.874,1.341C567.922,283.453,567.092,283.219,565.634,280.488"/>
	<path fill="#FFFFFF" d="M637.753,275.49c-0.446,1.021-0.793,1.811-1.267,2.893c-0.494-0.544-1.145-0.935-1.171-1.368
		c-0.05-0.708,0.313-1.448,0.503-2.169C636.439,275.053,637.063,275.26,637.753,275.49"/>
	<path fill="#FFFFFF" d="M627.896,280.738c-0.454,0.811-0.73,1.311-1.063,1.912c-0.688-0.5-1.268-0.924-2.028-1.481
		c0.307-0.524,0.7-1.494,0.887-1.454C626.421,279.863,627.092,280.331,627.896,280.738"/>
	<path fill="#FFFFFF" d="M634.058,284.114c-0.19,0.59-0.354,1.094-0.568,1.769c-0.857-0.261-1.668-0.504-2.495-0.751
		C631.849,283.006,631.922,282.983,634.058,284.114"/>
	<path fill="#FFFFFF" d="M637.276,280.934c0.984,0.397,1.778,0.721,2.572,1.041c-0.54,1.751-0.861,1.821-3.203,0.667
		C636.84,282.115,637.04,281.581,637.276,280.934"/>
	<path fill="#FFFFFF" d="M633.053,281.755c0.541-0.947,0.97-1.705,1.471-2.583c0.44,0.264,0.834,0.507,1.371,0.838
		c-0.323,0.743-0.63,1.441-0.995,2.284C634.314,282.118,633.777,281.965,633.053,281.755"/>
	<path fill="#FFFFFF" d="M601.465,287.503c-0.477,0.477-0.914,0.914-1.463,1.468c-0.665-0.554-1.198-0.995-1.818-1.504
		c0.693-0.491,1.274-0.901,2.018-1.428C600.571,286.469,600.959,286.915,601.465,287.503"/>
	<path fill="#FFFFFF" d="M541.495,274.586c-1.811,0.32-2.968,1.875-4.626,0.247c0.934-0.177,1.708-0.32,2.478-0.464
		c-0.224-0.153-0.454-0.304-0.684-0.458c0.53-0.133,1.068-0.394,1.588-0.35C540.578,273.589,540.878,274.052,541.495,274.586"/>
	<path fill="#FFFFFF" d="M543.757,275.9c0.563-0.27,1.037-0.5,1.664-0.793c0.324,0.764,0.617,1.451,0.941,2.215
		c-0.534,0.194-0.938,0.337-1.501,0.541C544.514,277.235,544.161,276.62,543.757,275.9"/>
	<path fill="#FFFFFF" d="M609.222,284.633c1.381-0.139,2.565-0.263,3.853-0.393C611.38,286.552,610.993,286.602,609.222,284.633"/>
	<path fill="#FFFFFF" d="M646.483,274.409c1.008,0.527,1.111,1.167,0.523,3.292C645.826,277.485,645.714,276.781,646.483,274.409"/>
	<path fill="#FFFFFF" d="M623.993,282.531c0.637,0.504,1.158,0.922,1.785,1.421c-0.294,0.375-0.568,0.735-0.917,1.188
		c-0.645-0.494-1.198-0.917-1.819-1.397C623.375,283.317,623.636,282.986,623.993,282.531"/>
	<path fill="#FFFFFF" d="M587.785,291.932c-0.904,1.352-2.132,0.604-3.339,0.587C586.287,290.748,586.491,290.718,587.785,291.932"
		/>
	<path fill="#FFFFFF" d="M594.35,292.817c-0.987-0.13-1.975-0.26-3.219-0.426c1.574-1.622,1.574-1.622,3.275-0.131
		C594.386,292.443,594.366,292.627,594.35,292.817"/>
	<path fill="#FFFFFF" d="M602.3,286.419c-0.464-0.447-0.874-0.844-1.325-1.282c0.983-1.354,2.105-0.434,3.506-0.613
		C603.587,285.301,602.993,285.818,602.3,286.419"/>
	<path fill="#FFFFFF" d="M588.068,289.874c0.427-0.379,0.847-0.757,1.367-1.224c0.458,0.336,0.901,0.664,1.395,1.024
		C589.913,290.622,589.109,291.352,588.068,289.874"/>
	<path fill="#FFFFFF" d="M618.529,288.583c0.477,0.364,0.867,0.675,1.458,1.134c-1.321,0.264-2.382,0.474-3.716,0.741
		C617.117,289.755,617.758,289.221,618.529,288.583"/>
	<path fill="#FFFFFF" d="M578.908,291.896c-1.161-0.217-2.228-0.414-3.349-0.624C577.113,289.791,577.434,289.848,578.908,291.896"
		/>
	<path fill="#FFFFFF" d="M581.036,283.163c1.081,0.069,2.035,0.136,3.176,0.209C582.11,284.917,582.083,284.917,581.036,283.163"/>
	<path fill="#FFFFFF" d="M551.957,282.499c0.693-0.297,1.388-0.593,2.185-0.938c0.23,0.403,0.434,0.764,0.748,1.315h-2.862
		C552.007,282.753,551.987,282.626,551.957,282.499"/>
	<path fill="#FFFFFF" d="M650.13,275.874c-0.627,0.924-1.175,1.738-1.948,2.882C648.869,275.51,648.869,275.51,650.13,275.874"/>
</g>
</svg>
